<?xml version="1.0" encoding="UTF-8" standalone="no"?>
<svg
   xmlns:dc="http://purl.org/dc/elements/1.1/"
   xmlns:cc="http://creativecommons.org/ns#"
   xmlns:rdf="http://www.w3.org/1999/02/22-rdf-syntax-ns#"
   xmlns:svg="http://www.w3.org/2000/svg"
   xmlns="http://www.w3.org/2000/svg"
   viewBox="0 0 778.58264 219.21333"
   height="219.21333"
   width="778.58264"
   xml:space="preserve"
   id="svg2"
   version="1.1"><metadata
     id="metadata8"><rdf:RDF><cc:Work
         rdf:about=""><dc:format>image/svg+xml</dc:format><dc:type
           rdf:resource="http://purl.org/dc/dcmitype/StillImage" /></cc:Work></rdf:RDF></metadata><defs
     id="defs6"><clipPath
       id="clipPath30"
       clipPathUnits="userSpaceOnUse"><path
         id="path28"
         d="M 0,164.41 H 583.937 V 0 H 0 Z" /></clipPath></defs><g
     transform="matrix(1.3333333,0,0,-1.3333333,0,219.21333)"
     id="g10"><g
       transform="translate(40.7227,144.7012)"
       id="g12"><path
         id="path14"
         style="fill:#87763c;fill-opacity:1;fill-rule:nonzero;stroke:none"
         d="m 0,0 h -9.293 v -65.008 h -9.75 V 0 h -9.315 V 9.739 H 0 Z" /></g><g
       transform="translate(59.6689,154.4399)"
       id="g16"><path
         id="path18"
         style="fill:#87763c;fill-opacity:1;fill-rule:nonzero;stroke:none"
         d="M 0,0 V -29.36 H 11.865 V 0 h 9.756 v -74.747 h -9.756 v 35.652 H 0 V -74.747 H -9.76 L -9.76,0 Z" /></g><g
       transform="translate(119.2803,154.4399)"
       id="g20"><path
         id="path22"
         style="fill:#87763c;fill-opacity:1;fill-rule:nonzero;stroke:none"
         d="M 0,0 V -9.739 H -17.934 V -29.36 h 11.087 v -9.735 H -17.934 V -65.003 H 0.674 v -9.744 H -27.695 V 0 Z" /></g><g
       id="g24"><g
         clip-path="url(#clipPath30)"
         id="g26"><g
           transform="translate(167.7974,89.437)"
           id="g32"><path
             id="path34"
             style="fill:#87763c;fill-opacity:1;fill-rule:nonzero;stroke:none"
             d="M 0,0 C 3.126,0 4.14,0.235 5.255,1.023 6.6,2.25 7.377,5.738 7.377,10.784 7.377,17.72 5.934,23.661 3.809,24.777 2.891,25.341 2.891,25.341 -0.67,25.341 H -5.157 V 0 Z m 0.099,35.094 c 3.027,0 3.934,0.324 4.837,1.901 0.784,1.348 1.23,3.58 1.23,6.836 0,9.518 -1.135,11.433 -6.836,11.433 H -5.157 V 35.094 Z M -5.4,65.003 c 10.774,-0.118 12.777,-0.659 15.938,-3.798 3.241,-3.473 4.586,-8.413 4.586,-17.588 0,-6.846 -0.789,-9.536 -3.596,-13.351 3.477,-4.597 4.943,-10.988 4.943,-21.18 0,-9.749 -3.027,-15.57 -9.193,-17.929 C 5.146,-9.64 4.246,-9.744 -3.706,-9.744 h -11.208 v 74.747 z" /></g><g
           transform="translate(202.0771,154.4399)"
           id="g36"><path
             id="path38"
             style="fill:#87763c;fill-opacity:1;fill-rule:nonzero;stroke:none"
             d="m 0,0 v -65.003 h 18.608 v -9.744 H -9.75 V 0 Z" /></g><g
           transform="translate(246.3398,130.9214)"
           id="g40"><path
             id="path42"
             style="fill:#87763c;fill-opacity:1;fill-rule:nonzero;stroke:none"
             d="M 0,0 -4.604,-23.087 H 4.59 Z M 19.72,-51.228 H 10.535 L 6.512,-32.497 H -6.497 l -4.041,-18.731 h -9.293 l 15.448,74.747 h 8.637 z" /></g><g
           transform="translate(292.2812,141.4526)"
           id="g44"><path
             id="path46"
             style="fill:#87763c;fill-opacity:1;fill-rule:nonzero;stroke:none"
             d="m 0,0 c -0.459,3.576 -2.021,5.153 -4.839,5.153 -3.23,0 -4.921,-1.904 -5.695,-6.17 -0.92,-5.366 -1.579,-15.459 -1.579,-23.315 0,-8.505 0.769,-19.488 1.786,-24.192 0.681,-3.709 2.472,-5.389 5.488,-5.389 2.818,0 4.38,1.569 4.839,5.168 h 9.411 c -0.117,-8.62 -5.713,-14.471 -14.018,-14.471 -7.172,0 -12.885,4.382 -14.773,11.436 -1.349,5.031 -2.491,17.363 -2.491,27.448 0,10.767 1.234,23.422 2.7,28.133 2.137,6.634 7.717,10.652 14.564,10.652 C 3.698,14.453 9.294,8.63 9.411,0 Z" /></g><g
           transform="translate(319.9473,154.4399)"
           id="g48"><path
             id="path50"
             style="fill:#87763c;fill-opacity:1;fill-rule:nonzero;stroke:none"
             d="M 0,0 V -24.317 L 11.315,0 H 21.746 L 9.75,-25.434 23.201,-74.747 H 13.559 L 3.687,-38.546 0,-46.273 v -28.474 h -9.761 l 0,74.747 z" /></g><g
           transform="translate(386.626,121.7358)"
           id="g52"><path
             id="path54"
             style="fill:#87763c;fill-opacity:1;fill-rule:nonzero;stroke:none"
             d="m 0,0 c 6.729,0 9.621,3.569 9.621,11.532 0,5.054 -1.329,8.737 -3.809,10.538 -1.553,1.223 -1.683,1.223 -6.39,1.223 H -2.36 L -2.36,0 Z m -1.131,32.704 c 6.615,0 9.294,-0.545 12.546,-2.553 5.16,-3.499 7.867,-9.657 7.867,-18.516 0,-8.516 -2.707,-14.666 -7.867,-18.379 C 8.384,-8.852 6.144,-9.422 0.892,-9.422 H -2.36 v -32.62 h -9.758 v 74.746 z" /></g><g
           transform="translate(442.3184,154.4399)"
           id="g56"><path
             id="path58"
             style="fill:#87763c;fill-opacity:1;fill-rule:nonzero;stroke:none"
             d="M 0,0 V -9.739 H -17.941 V -29.36 h 11.089 v -9.735 H -17.941 V -65.003 H 0.655 v -9.744 H -27.681 V 0 Z" /></g><g
           transform="translate(482.7568,79.6933)"
           id="g60"><path
             id="path62"
             style="fill:#87763c;fill-opacity:1;fill-rule:nonzero;stroke:none"
             d="M 0,0 H -8.408 L -21.643,43.612 V 0 h -9.75 v 74.747 h 9.433 L -9.761,36.311 V 74.747 H 0 Z" /></g><g
           transform="translate(524.7764,79.6933)"
           id="g64"><path
             id="path66"
             style="fill:#87763c;fill-opacity:1;fill-rule:nonzero;stroke:none"
             d="M 0,0 H -8.409 L -21.625,43.612 V 0 h -9.761 v 74.747 h 9.426 L -9.757,36.311 V 74.747 H 0 Z" /></g><g
           transform="translate(541.1416,154.4399)"
           id="g68"><path
             id="path70"
             style="fill:#87763c;fill-opacity:1;fill-rule:nonzero;stroke:none"
             d="M 0,0 9.849,-26.66 19.599,0 h 9.974 L 14.663,-41.121 V -74.747 H 4.925 v 33.626 L -9.981,0 Z" /></g><g
           transform="translate(12.3628,53.2734)"
           id="g72"><path
             id="path74"
             style="fill:none;stroke:#87763c;stroke-width:1;stroke-linecap:butt;stroke-linejoin:miter;stroke-miterlimit:10;stroke-dasharray:none;stroke-opacity:1"
             d="M 0,0 H 558.354" /></g><g
           transform="translate(52.9575,28.7988)"
           id="g76"><path
             id="path78"
             style="fill:#87763c;fill-opacity:1;fill-rule:nonzero;stroke:none"
             d="m 0,0 c -0.029,1.733 -1.271,3.091 -3.032,3.091 -4.39,0 -4.678,-5.949 -4.678,-9.155 0,-3.032 0.317,-8.807 4.475,-8.807 2.166,0 3.465,1.617 3.494,3.667 h 2.167 c -0.232,-3.378 -2.282,-5.487 -5.747,-5.487 -5.719,0 -6.556,6.266 -6.556,10.684 0,4.564 0.953,10.917 6.816,10.917 2.888,0 5.053,-2.021 5.227,-4.91 z" /></g><g
           transform="translate(76.5166,22.9082)"
           id="g80"><path
             id="path82"
             style="fill:#87763c;fill-opacity:1;fill-rule:nonzero;stroke:none"
             d="m 0,0 c 0,1.905 0.289,8.981 -4.216,8.981 -4.62,0 -4.216,-7.767 -4.216,-8.981 0,-2.367 -0.116,-8.98 4.216,-8.98 C -2.05,-8.98 0,-7.537 0,0 m -4.216,10.801 c 6.065,0 6.383,-6.932 6.383,-10.801 0,-2.772 0.201,-10.801 -6.383,-10.801 -6.41,0 -6.382,7.856 -6.382,10.801 0,8.692 2.888,10.801 6.382,10.801" /></g><g
           transform="translate(102.271,31.4844)"
           id="g84"><path
             id="path86"
             style="fill:#87763c;fill-opacity:1;fill-rule:nonzero;stroke:none"
             d="m 0,0 h -8.981 v -7.219 h 6.729 v -1.818 h -6.729 v -9.935 h -2.166 V 1.82 L 0,1.82 Z" /></g><g
           transform="translate(125.3687,31.4844)"
           id="g88"><path
             id="path90"
             style="fill:#87763c;fill-opacity:1;fill-rule:nonzero;stroke:none"
             d="m 0,0 h -8.981 v -7.219 h 6.729 v -1.818 h -6.729 v -9.935 h -2.166 V 1.82 L 0,1.82 Z" /></g><g
           transform="translate(147.7441,31.4844)"
           id="g92"><path
             id="path94"
             style="fill:#87763c;fill-opacity:1;fill-rule:nonzero;stroke:none"
             d="m 0,0 h -8.635 v -7.393 h 6.21 v -1.818 h -6.21 v -7.941 h 8.838 v -1.82 H -10.8 V 1.82 l 10.8,0 z" /></g><g
           transform="translate(170.8418,31.4844)"
           id="g96"><path
             id="path98"
             style="fill:#87763c;fill-opacity:1;fill-rule:nonzero;stroke:none"
             d="m 0,0 h -8.635 v -7.393 h 6.21 v -1.818 h -6.21 v -7.941 h 8.838 v -1.82 H -10.8 V 1.82 l 10.8,0 z" /></g><g
           transform="translate(207.2764,24.208)"
           id="g100"><path
             id="path102"
             style="fill:#87763c;fill-opacity:1;fill-rule:nonzero;stroke:none"
             d="M 0,0 H 7.22 V 9.097 H 9.385 V -11.695 H 7.22 v 9.876 H 0 v -9.876 H -2.166 V 9.097 H 0 Z" /></g><g
           transform="translate(238.1997,22.9082)"
           id="g104"><path
             id="path106"
             style="fill:#87763c;fill-opacity:1;fill-rule:nonzero;stroke:none"
             d="m 0,0 c 0,1.905 0.289,8.981 -4.216,8.981 -4.62,0 -4.217,-7.767 -4.217,-8.981 0,-2.367 -0.115,-8.98 4.217,-8.98 C -2.051,-8.98 0,-7.537 0,0 m -4.216,10.801 c 6.064,0 6.382,-6.932 6.382,-10.801 0,-2.772 0.202,-10.801 -6.382,-10.801 -6.411,0 -6.382,7.856 -6.382,10.801 0,8.692 2.887,10.801 6.382,10.801" /></g><g
           transform="translate(262.8276,33.3047)"
           id="g108"><path
             id="path110"
             style="fill:#87763c;fill-opacity:1;fill-rule:nonzero;stroke:none"
             d="m 0,0 v -15.334 c 0,-3.928 -2.945,-5.863 -5.747,-5.863 -2.252,0 -5.775,1.271 -5.775,7.017 V 0 h 2.166 v -15.334 c 0,-3.004 1.934,-4.043 3.609,-4.043 2.657,0 3.581,1.964 3.581,4.303 V 0 Z" /></g><g
           transform="translate(284.7124,29.5508)"
           id="g112"><path
             id="path114"
             style="fill:#87763c;fill-opacity:1;fill-rule:nonzero;stroke:none"
             d="m 0,0 c -1.271,1.126 -2.714,2.339 -4.505,2.339 -1.848,0 -3.35,-1.271 -3.35,-3.177 0,-1.098 0.202,-2.079 3.003,-3.783 l 1.646,-1.011 c 3.812,-2.339 4.852,-3.435 4.852,-5.862 0,-3.725 -2.483,-5.949 -6.122,-5.949 -2.686,0 -4.678,1.299 -6.296,3.379 l 1.676,1.328 c 1.01,-1.617 2.628,-2.887 4.62,-2.887 2.165,0 3.956,1.617 3.956,3.84 0,1.675 -0.116,2.253 -3.783,4.448 l -1.877,1.126 c -2.05,1.213 -3.841,2.628 -3.841,5.227 0,3.263 2.484,5.14 5.603,5.14 2.166,0 4.158,-1.155 5.717,-2.599 z" /></g><g
           transform="translate(309.4277,31.4844)"
           id="g116"><path
             id="path118"
             style="fill:#87763c;fill-opacity:1;fill-rule:nonzero;stroke:none"
             d="m 0,0 h -8.635 v -7.393 h 6.209 v -1.818 h -6.209 v -7.941 h 8.837 v -1.82 H -10.8 V 1.82 l 10.8,0 z" /></g><g
           transform="translate(349.9639,29.7822)"
           id="g120"><path
             id="path122"
             style="fill:#87763c;fill-opacity:1;fill-rule:nonzero;stroke:none"
             d="m 0,0 c 0,0.837 -0.462,2.107 -1.503,2.107 -1.24,0 -1.675,-1.646 -1.675,-2.628 0,-1.443 0.491,-2.542 1.214,-3.753 C -1.068,-2.917 0,-1.705 0,0 m -2.252,-7.798 c -1.215,-1.473 -2.455,-3.118 -2.455,-5.111 0,-1.734 0.953,-2.945 2.771,-2.945 1.532,0 2.802,0.779 3.639,2.049 z m 8.778,-8.605 -1.473,-1.531 -2.194,2.54 c -1.242,-1.471 -2.888,-2.281 -4.795,-2.281 -2.886,0 -4.938,1.791 -4.938,4.737 0,2.859 1.675,4.966 3.466,7.016 -0.982,1.589 -1.935,3.206 -1.935,5.112 0,3.496 2.368,4.737 3.813,4.737 2.28,0 3.696,-1.906 3.696,-4.043 0,-2.512 -1.474,-4.158 -3.003,-5.949 l 3.407,-5.487 c 0.086,0.433 0.144,0.923 0.201,1.444 0.117,1.212 0.117,2.542 0.117,3.464 H 4.995 C 4.967,-8.954 4.88,-11.351 4.014,-13.546 Z" /></g><g
           transform="translate(392.8955,24.1494)"
           id="g124"><path
             id="path126"
             style="fill:#87763c;fill-opacity:1;fill-rule:nonzero;stroke:none"
             d="M 0,0 C 1.502,0.174 5.054,3.784 7.074,9.415 L 9.212,8.288 7.509,5.43 C 4.765,0.838 3.35,-0.316 2.021,-1.154 l 8.981,-10.483 H 8.115 L 0.174,-1.848 H 0 v -9.789 H -2.167 V 9.155 l 2.167,0 z" /></g><g
           transform="translate(422.6641,31.4844)"
           id="g128"><path
             id="path130"
             style="fill:#87763c;fill-opacity:1;fill-rule:nonzero;stroke:none"
             d="M 0,0 H -2.831 V -17.152 H 0 v -1.82 h -7.797 v 1.82 h 2.801 V 0 H -7.797 V 1.82 H 0 Z" /></g><g
           transform="translate(448.8213,31.4844)"
           id="g132"><path
             id="path134"
             style="fill:#87763c;fill-opacity:1;fill-rule:nonzero;stroke:none"
             d="M 0,0 H -5.92 V -18.972 H -8.087 V 0 h -5.804 V 1.82 H 0 Z" /></g><g
           transform="translate(468.7129,28.7988)"
           id="g136"><path
             id="path138"
             style="fill:#87763c;fill-opacity:1;fill-rule:nonzero;stroke:none"
             d="m 0,0 c -0.028,1.733 -1.271,3.091 -3.032,3.091 -4.389,0 -4.678,-5.949 -4.678,-9.155 0,-3.032 0.317,-8.807 4.476,-8.807 2.166,0 3.464,1.617 3.495,3.667 h 2.165 c -0.231,-3.378 -2.28,-5.487 -5.746,-5.487 -5.718,0 -6.556,6.266 -6.556,10.684 0,4.564 0.953,10.917 6.815,10.917 2.887,0 5.054,-2.021 5.228,-4.91 z" /></g><g
           transform="translate(484.4473,24.208)"
           id="g140"><path
             id="path142"
             style="fill:#87763c;fill-opacity:1;fill-rule:nonzero;stroke:none"
             d="M 0,0 H 7.219 V 9.097 H 9.385 V -11.695 H 7.219 v 9.876 H 0 v -9.876 H -2.167 V 9.097 H 0 Z" /></g><g
           transform="translate(517.3047,31.4844)"
           id="g144"><path
             id="path146"
             style="fill:#87763c;fill-opacity:1;fill-rule:nonzero;stroke:none"
             d="m 0,0 h -8.634 v -7.393 h 6.209 v -1.818 h -6.209 v -7.941 h 8.837 v -1.82 H -10.801 V 1.82 L 0,1.82 Z" /></g><g
           transform="translate(528.9092,33.3047)"
           id="g148"><path
             id="path150"
             style="fill:#87763c;fill-opacity:1;fill-rule:nonzero;stroke:none"
             d="M 0,0 H 2.513 L 8.837,-15.537 H 8.923 V 0 H 11.09 V -20.994 H 9.038 L 2.224,-4.217 2.166,-4.274 V -20.792 H 0 Z" /></g></g></g></g></svg>