<?xml version="1.0" encoding="UTF-8" standalone="no"?>
<svg
   xmlns:dc="http://purl.org/dc/elements/1.1/"
   xmlns:cc="http://creativecommons.org/ns#"
   xmlns:rdf="http://www.w3.org/1999/02/22-rdf-syntax-ns#"
   xmlns:svg="http://www.w3.org/2000/svg"
   xmlns="http://www.w3.org/2000/svg"
   viewBox="0 0 2000 2000"
   height="2000"
   width="2000"
   xml:space="preserve"
   id="svg2"
   version="1.1"><metadata
     id="metadata8"><rdf:RDF><cc:Work
         rdf:about=""><dc:format>image/svg+xml</dc:format><dc:type
           rdf:resource="http://purl.org/dc/dcmitype/StillImage" /></cc:Work></rdf:RDF></metadata><defs
     id="defs6"><clipPath
       id="clipPath18"
       clipPathUnits="userSpaceOnUse"><path
         id="path16"
         d="M 0,1500 H 1500 V 0 H 0 Z" /></clipPath></defs><g
     transform="matrix(1.3333333,0,0,-1.3333333,0,2000)"
     id="g10"><g
       id="g12"><g
         clip-path="url(#clipPath18)"
         id="g14"><g
           transform="translate(26.75,625.8036)"
           id="g20"><path
             id="path22"
             style="fill:#8b6c36;fill-opacity:1;fill-rule:nonzero;stroke:none"
             d="M 0,0 V -4.018 H 96.268 V 0 H 80.679 C 77.714,-1.184 74.476,-0.217 72.964,2.089 71.284,4.653 72.542,7.645 72.643,7.875 72.696,101.25 72.75,194.625 72.804,288 L 187.714,-7.071 299.089,288 h 4.018 V 7.714 c -0.034,-0.834 -0.229,-2.671 -1.5,-4.446 -2.161,-3.02 -5.656,-3.38 -6.214,-3.429 l -19.125,-0.16 -0.161,-3.215 h 57.536 v 3.375 L 314.196,0 c -0.494,0.019 -3.39,0.18 -5.517,2.625 -1.889,2.169 -1.89,4.665 -1.875,5.25 0.053,97.179 0.107,194.357 0.16,291.536 0.611,0.728 1.449,1.545 2.572,2.25 3.638,2.284 7.567,1.694 8.839,1.446 h 15.268 v 4.018 H 257.625 L 165.054,65.089 72.804,299.25 72.643,307.125 H 0 v -4.018 h 19.607 c 0.586,0.005 2.863,-0.044 4.822,-1.768 2.516,-2.214 2.429,-5.364 2.41,-5.785 V 7.875 C 26.97,7.582 28.122,4.884 26.679,2.411 25.345,0.124 22.357,-1.004 19.446,-0.161 12.964,-0.107 6.482,-0.054 0,0" /></g><g
           transform="translate(391.0893,625.9643)"
           id="g24"><path
             id="path26"
             style="fill:#8b6c36;fill-opacity:1;fill-rule:nonzero;stroke:none"
             d="m 0,0 h 19.286 c 0.393,-0.043 3.316,-0.313 5.625,1.929 2.334,2.266 2.123,5.238 2.089,5.625 -0.054,96.053 -0.107,192.107 -0.161,288.16 -0.114,0.699 -0.613,3.22 -2.893,5.143 -1.791,1.511 -3.717,1.839 -4.5,1.929 H 0 v 4.178 h 99.804 v -4.018 H 80.679 c -0.946,-0.245 -3.651,-1.081 -5.625,-3.696 -1.105,-1.463 -1.563,-2.929 -1.768,-3.857 C 73.232,199.446 73.179,103.5 73.125,7.554 73.101,7.087 73.007,4.429 75.054,2.25 77.281,-0.122 80.253,-0.022 80.679,0 H 99.804 V -4.179 H 0 Z" /></g><g
           transform="translate(633.125,932.7679)"
           id="g28"><path
             id="path30"
             style="fill:#8b6c36;fill-opacity:1;fill-rule:nonzero;stroke:none"
             d="m 0,0 v -4.018 h 19.286 c 0.56,-0.037 3.264,-0.278 5.303,-2.571 1.665,-1.872 1.886,-3.985 1.929,-4.661 0.053,-96.054 0.107,-192.107 0.161,-288.161 -0.125,-0.824 -0.532,-2.741 -2.09,-4.5 -2.13,-2.406 -4.906,-2.81 -5.625,-2.893 H 0 v -3.535 l 245.25,-0.322 v 72.643 h -3.857 l 0.161,-38.25 c -0.916,-3.778 -3.809,-13.494 -12.858,-21.536 -6.845,-6.083 -14.045,-8.394 -17.839,-9.321 -46.125,0.107 -92.25,0.214 -138.375,0.321 l 0.161,295.233 c 0.097,0.744 0.49,3.011 2.411,4.982 2.017,2.07 4.418,2.476 5.142,2.571 6.536,0.054 13.072,0.107 19.608,0.161 V 0 Z" /></g><g
           transform="translate(905.6964,932.7679)"
           id="g32"><path
             id="path34"
             style="fill:#8b6c36;fill-opacity:1;fill-rule:nonzero;stroke:none"
             d="m 0,0 v -4.018 h 18.964 c 0.936,-0.227 2.679,-0.787 4.34,-2.25 2.309,-2.035 3.004,-4.535 3.214,-5.464 -0.054,-95.893 -0.107,-191.786 -0.161,-287.679 -0.058,-0.854 -0.297,-2.531 -1.446,-4.178 -2.098,-3.007 -5.518,-3.467 -6.107,-3.536 H 0 v -3.536 l 245.089,-0.16 v 72.642 l -3.857,0.161 0.322,-38.25 c -0.674,-3.391 -3.023,-12.886 -11.572,-20.893 -7.531,-7.053 -15.796,-9.132 -19.286,-9.803 -46.178,0.053 -92.357,0.107 -138.535,0.16 l 0.482,145.768 c 0.027,0.24 0.326,2.503 2.411,3.697 2.334,1.336 4.699,0.068 4.821,0 28.179,0.053 56.357,0.107 84.536,0.16 0.786,-0.084 2.89,-0.415 4.821,-2.089 2.243,-1.945 2.766,-4.416 2.893,-5.143 l 0.161,-19.607 3.857,0.161 -0.161,53.678 h -3.857 v -15.75 c -0.081,-0.81 -0.393,-2.801 -1.929,-4.66 -2.03,-2.459 -4.765,-2.95 -5.464,-3.054 -28.339,0.054 -56.678,0.107 -85.018,0.161 -2.416,-0.787 -4.882,-0.29 -6.268,1.286 -0.787,0.896 -1.037,1.926 -1.125,2.571 0.054,48.589 0.108,97.179 0.161,145.768 l 134.036,-0.161 c 3.459,-0.275 12.618,-1.466 21.214,-8.464 10.057,-8.188 12.684,-18.903 13.339,-22.072 0.054,-12.803 0.108,-25.607 0.161,-38.41 l 3.857,-0.161 V 0 Z" /></g><g
           transform="translate(1426.5714,741.1964)"
           id="g36"><path
             id="path38"
             style="fill:#8b6c36;fill-opacity:1;fill-rule:nonzero;stroke:none"
             d="m 0,0 c -2.325,-11.789 -5.782,-21.788 -12.696,-41.786 -5.357,-15.491 -7.687,-20.046 -9.322,-22.982 -7.699,-13.823 -16.924,-22.13 -25.875,-30.053 -17.379,-15.383 -26.069,-23.075 -40.821,-26.84 -20.753,-5.296 -38.554,0.859 -44.197,2.893 -11.146,4.018 -18.804,9.694 -24.589,13.982 -12.934,9.588 -20.579,19.373 -22.821,22.34 -6.25,8.267 -9.203,14.726 -15.108,27.642 -4.226,9.245 -10.48,23.107 -15.267,42.429 -4.082,16.474 -5.218,29.335 -5.465,32.304 -0.519,6.263 -2.045,28.393 3.536,56.41 1.986,9.969 4.23,17.463 5.143,20.411 6.24,20.157 14.093,34.073 15.75,36.964 5.619,9.808 12.804,22.347 26.357,34.393 8.151,7.245 28.724,25.529 57.857,25.554 14.979,0.012 26.456,-4.807 29.732,-6.268 10.026,-4.472 16.242,-10.053 23.304,-16.393 2.323,-2.086 13.135,-11.941 23.946,-28.286 7.825,-11.83 12.143,-21.757 15.911,-30.535 2.03,-4.73 6.849,-16.062 10.607,-30.054 C -0.792,70.117 7.485,37.958 0,0 m 43.875,75.536 c -3.228,12.38 -7.194,21.571 -9,25.553 -1.824,4.022 -6.67,14.25 -15.107,26.197 -3.115,4.41 -10.805,14.841 -22.982,26.196 -13.521,12.609 -25.852,20.088 -30.857,22.982 -7.024,4.061 -19.769,11.312 -38.09,16.072 -20.21,5.251 -37.525,4.956 -48.214,4.018 -5.914,-0.52 -29.001,-2.923 -55.286,-16.554 -43.435,-22.526 -63.55,-59.091 -69.91,-71.036 -4.583,-8.604 -11.979,-22.747 -16.072,-42.91 -11.152,-54.935 13.421,-99.34 21.054,-112.661 15.268,-26.648 33.399,-41.645 37.768,-45.161 5.517,-4.44 19.952,-15.409 41.464,-23.625 12.685,-4.844 49.144,-18.192 92.25,-6.428 24.834,6.777 41.503,19.059 52.071,27 11.574,8.696 26.449,22.109 39.536,41.303 11.504,16.873 16.75,31.06 17.839,34.072 1.034,2.859 5.157,14.547 7.393,30.857 1.394,10.162 3.792,34.786 -3.857,64.125" /></g><g
           transform="translate(517.5714,809.2857)"
           id="g40"><path
             id="path42"
             style="fill:#8b6c36;fill-opacity:1;fill-rule:nonzero;stroke:none"
             d="M 0,0 C -0.071,-15.5 -0.143,-31 -0.214,-46.5 14.714,-52.571 29.643,-58.643 44.571,-64.714 59.714,-58.857 74.857,-53 90,-47.143 90.143,-31.429 90.286,-15.714 90.429,0 80.841,-3.274 71.254,-6.548 61.666,-9.823 55.897,-1.406 50.127,7.012 44.357,15.429 38.571,6.786 32.786,-1.857 27,-10.5 Z" /></g><g
           transform="translate(524.9643,739.6437)"
           id="g44"><path
             id="path46"
             style="fill:#8b6c36;fill-opacity:1;fill-rule:nonzero;stroke:none"
             d="M 0,0 C -0.027,1.562 -0.054,3.124 -0.08,4.687 -3.333,4.675 -6.586,4.663 -9.839,4.651 -9.847,4.076 -9.956,-3.275 -9.964,-3.858 c -0.009,-0.594 -0.12,-8.045 -0.129,-8.647 l 10.013,-0.246 c 0.026,1.714 0.053,3.429 0.08,5.143 24.985,0.017 49.97,0.033 74.954,0.05 0.088,-1.694 0.176,-3.388 0.263,-5.081 3.11,0.043 6.221,0.086 9.331,0.129 0.1,2.852 0.153,5.8 0.148,8.839 -0.004,2.879 -0.061,5.675 -0.16,8.384 H 75.321 C 75.313,3.151 75.304,1.588 75.295,0.026 50.196,0.017 25.098,0.009 0,0" /></g><g
           transform="translate(555.6461,410.6647)"
           id="g48"><path
             id="path50"
             style="fill:#8b6c36;fill-opacity:1;fill-rule:nonzero;stroke:none"
             d="M 0,0 17.869,12.938 35.739,0 28.956,20.993 46.783,33.989 24.721,34.026 17.869,54.996 11.018,34.026 -11.044,33.989 6.783,20.993 Z" /></g><g
           transform="translate(625.9163,410.6647)"
           id="g52"><path
             id="path54"
             style="fill:#8b6c36;fill-opacity:1;fill-rule:nonzero;stroke:none"
             d="M 0,0 17.869,12.938 35.739,0 28.956,20.993 46.783,33.989 24.721,34.026 17.869,54.996 11.018,34.026 -11.044,33.989 6.783,20.993 Z" /></g><g
           transform="translate(697.0592,410.6647)"
           id="g56"><path
             id="path58"
             style="fill:#8b6c36;fill-opacity:1;fill-rule:nonzero;stroke:none"
             d="M 0,0 17.869,12.938 35.739,0 28.956,20.993 46.782,33.989 24.721,34.026 17.869,54.996 11.018,34.026 -11.044,33.989 6.783,20.993 Z" /></g><g
           transform="translate(768.4163,410.6647)"
           id="g60"><path
             id="path62"
             style="fill:#8b6c36;fill-opacity:1;fill-rule:nonzero;stroke:none"
             d="M 0,0 17.869,12.938 35.739,0 28.956,20.993 46.783,33.989 24.721,34.026 17.869,54.996 11.018,34.026 -11.044,33.989 6.783,20.993 Z" /></g><g
           transform="translate(839.7735,410.6647)"
           id="g64"><path
             id="path66"
             style="fill:#8b6c36;fill-opacity:1;fill-rule:nonzero;stroke:none"
             d="M 0,0 17.869,12.938 35.739,0 28.956,20.993 46.782,33.989 24.721,34.026 17.869,54.996 11.018,34.026 -11.044,33.989 6.783,20.993 Z" /></g><g
           transform="translate(290,544.5357)"
           id="g68"><path
             id="path70"
             style="fill:#8b6c36;fill-opacity:1;fill-rule:nonzero;stroke:none"
             d="M 0,0 V -2.357 H 2.571 C 2.732,-2.358 3.63,-2.376 4.339,-3.107 5.063,-3.852 5.042,-4.772 5.036,-4.929 V -44.893 H 0 v -2.357 h 39.857 v 14.786 h -2.464 l 0.107,-7.5 c -0.088,-0.52 -0.404,-1.969 -1.661,-3.241 -1.231,-1.246 -2.64,-1.588 -3.16,-1.688 C 26.786,-44.929 20.893,-44.964 15,-45 l -0.107,40.071 c -0.003,0.187 0.007,0.982 0.616,1.661 0.717,0.8 1.697,0.805 1.848,0.804 h 2.572 V 0 Z" /></g><g
           transform="translate(332.5357,544.5357)"
           id="g72"><path
             id="path74"
             style="fill:#8b6c36;fill-opacity:1;fill-rule:nonzero;stroke:none"
             d="m 0,0 v -2.464 h 2.357 c 0.894,0.109 1.751,-0.266 2.197,-0.965 0.44,-0.691 0.305,-1.428 0.267,-1.607 -0.217,-10.613 0.27,-19.49 0.858,-26.196 0.588,-6.718 1.206,-10.453 4.178,-13.581 4.543,-4.78 11.395,-4.784 12.938,-4.741 1.663,0.048 6.337,0.247 10.366,3.616 2.904,2.429 4.084,5.357 4.982,7.581 1.637,4.052 1.832,7.515 1.925,9.451 0.468,9.781 0.199,19.247 0.003,24.192 0.073,0.266 0.269,0.847 0.804,1.366 0.628,0.608 1.341,0.76 1.607,0.803 h 2.411 V 0 H 30.027 v -2.464 l 2.411,-0.081 c 0.333,-0.1 0.85,-0.302 1.366,-0.723 0.742,-0.606 1.071,-1.33 1.205,-1.687 0.022,-13.051 0.03,-22.84 0.161,-27.804 0.017,-0.667 0.069,-2.481 -0.643,-4.661 -0.37,-1.131 -1.581,-4.849 -5.366,-7.009 -0.419,-0.239 -5.217,-2.871 -10.146,-0.544 -3.625,1.712 -5.047,5.033 -5.542,6.187 -1.034,2.416 -1.103,4.608 -1.044,5.866 l -0.081,28.125 c 0.017,0.168 0.138,1.19 1.045,1.849 0.669,0.486 1.375,0.49 1.607,0.482 h 2.33 L 17.411,0 Z" /></g><g
           transform="translate(380,544.5357)"
           id="g76"><path
             id="path78"
             style="fill:#8b6c36;fill-opacity:1;fill-rule:nonzero;stroke:none"
             d="m 0,0 v -2.545 h 2.732 c 0.311,-0.102 0.8,-0.307 1.286,-0.723 0.614,-0.526 0.911,-1.122 1.044,-1.446 4.152,-5.947 8.304,-11.893 12.456,-17.84 v -2.229 L 5.143,-42.482 2.571,-45.054 H 0 v -2.41 h 12.536 l -0.081,2.651 -2.491,-0.08 -0.08,2.25 10.125,15.107 h 2.089 l 7.875,-17.437 -2.491,-0.081 0.08,-2.41 h 19.849 v 2.33 L 45,-44.973 c -0.513,0.304 -1.052,0.65 -1.607,1.044 -0.725,0.515 -1.366,1.032 -1.929,1.527 -3.857,5.866 -7.714,11.732 -11.571,17.598 l -0.161,2.331 12.054,17.357 c 0.116,0.347 0.445,1.176 1.285,1.848 0.697,0.557 1.409,0.738 1.768,0.804 0.857,0.026 1.715,0.053 2.572,0.08 V 0 H 35.116 v -2.384 h 2.33 l 0.081,-2.33 -10.045,-15.268 h -2.491 l -7.473,17.437 2.491,0.081 0.08,2.464 z" /></g><g
           transform="translate(510.0982,524.5536)"
           id="g80"><path
             id="path82"
             style="fill:#8b6c36;fill-opacity:1;fill-rule:nonzero;stroke:none"
             d="m 0,0 c -0.036,-0.268 -0.158,-0.88 -0.643,-1.446 -0.692,-0.81 -1.623,-0.939 -1.848,-0.965 h -12.697 v 19.929 h 12.456 c 0.405,-0.212 1.479,-0.843 2.17,-2.17 C 0.049,14.174 0.034,13.082 0,12.616 Z m 9.884,-25.071 c 0.252,2.102 0.417,4.474 0.402,7.071 -0.012,2.059 -0.136,3.969 -0.322,5.705 -0.654,1.194 -1.539,2.583 -2.732,4.018 -0.938,1.13 -1.877,2.059 -2.732,2.813 -0.127,0.159 -0.33,0.46 -0.402,0.884 -0.146,0.859 0.368,1.512 0.458,1.623 0.697,0.199 1.836,0.627 2.917,1.591 1.548,1.379 2.168,3.019 2.331,3.937 0.188,1.065 0.335,2.249 0.401,3.536 0.13,2.51 -0.086,4.716 -0.401,6.509 -0.1,0.729 -0.501,2.966 -2.411,4.902 -1.96,1.985 -4.263,2.393 -4.982,2.491 h -32.545 v -2.411 h 2.572 c 0.135,0.004 1.136,0.015 1.848,-0.803 0.645,-0.742 0.577,-1.617 0.562,-1.768 v -37.688 c -0.023,-0.229 -0.119,-0.878 -0.643,-1.446 -0.717,-0.779 -1.678,-0.802 -1.848,-0.804 h -2.491 v -2.491 h 20.009 v 2.331 l -2.732,0.08 c -0.793,-0.08 -1.563,0.256 -2.009,0.884 -0.55,0.774 -0.354,1.636 -0.322,1.768 0.054,5.009 0.108,10.018 0.161,15.027 l 12.295,-0.161 c 0.297,-0.054 0.93,-0.21 1.527,-0.723 0.766,-0.66 0.983,-1.486 1.044,-1.768 v -17.438 h 12.456 v 2.331 z" /></g><g
           transform="translate(522.3929,544.5625)"
           id="g84"><path
             id="path86"
             style="fill:#8b6c36;fill-opacity:1;fill-rule:nonzero;stroke:none"
             d="M 0,0 V -2.491 H 2.411 L 17.679,-34.875 V -44.92 h -5.063 l 0.08,-2.491 h 19.849 v 2.25 l -4.902,0.081 v 10.205 L 42.589,-2.491 H 45 V 0 H 32.705 l 0.081,-2.491 h 4.821 l -11.25,-27.402 -11.25,27.402 h 2.411 V 0 Z" /></g><g
           transform="translate(599.9375,544.5625)"
           id="g88"><path
             id="path90"
             style="fill:#8b6c36;fill-opacity:1;fill-rule:nonzero;stroke:none"
             d="m 0,0 v -2.25 h 2.491 c 0.307,-0.074 0.986,-0.283 1.607,-0.884 0.669,-0.647 0.89,-1.382 0.964,-1.687 V -42.589 C 5.078,-42.731 5.161,-43.625 4.5,-44.357 3.733,-45.207 2.635,-45.093 2.531,-45.08 H 0 v -2.331 h 17.598 v 2.331 l -2.571,-0.081 c -0.213,-0.007 -0.999,-0.009 -1.688,0.563 -0.971,0.806 -0.894,2.045 -0.884,2.169 v 17.518 l 22.581,-0.16 V -42.67 c 0.019,-0.197 0.062,-0.894 -0.402,-1.526 -0.729,-0.996 -2.02,-0.891 -2.089,-0.884 h -2.572 l -0.08,-2.331 H 47.652 V -45 H 44.92 c -0.092,-0.005 -1.36,-0.053 -2.09,0.964 -0.513,0.717 -0.427,1.499 -0.401,1.688 v 37.446 c -0.18,0.698 0.036,1.44 0.562,1.929 0.538,0.499 1.316,0.655 2.009,0.402 h 2.652 V 0 H 29.973 v -2.491 h 2.491 c 0.851,0.288 1.765,0.017 2.25,-0.643 0.563,-0.765 0.272,-1.678 0.241,-1.768 0.027,-5.893 0.054,-11.785 0.081,-17.678 l -22.661,0.08 0.08,17.679 c 0.005,0.146 0.05,1.032 0.804,1.687 0.747,0.649 1.621,0.577 1.768,0.563 0.83,0.026 1.66,0.053 2.491,0.08 V 0 Z" /></g><g
           transform="translate(674.308,496.4286)"
           id="g92"><path
             id="path94"
             style="fill:#8b6c36;fill-opacity:1;fill-rule:nonzero;stroke:none"
             d="m 0,0 c -9.164,0 -16.594,10.577 -16.594,23.625 0,13.048 7.43,23.625 16.594,23.625 9.164,0 16.594,-10.577 16.594,-23.625 C 16.594,10.577 9.164,0 0,0 m 0.08,48.857 c -13.78,0 -24.951,-11.297 -24.951,-25.232 0,-13.935 11.171,-25.232 24.951,-25.232 13.78,0 24.951,11.297 24.951,25.232 0,13.935 -11.171,25.232 -24.951,25.232" /></g><g
           transform="translate(700.1429,532.1071)"
           id="g96"><path
             id="path98"
             style="fill:#8b6c36;fill-opacity:1;fill-rule:nonzero;stroke:none"
             d="m 0,0 c 0.821,-0.018 1.642,-0.036 2.463,-0.055 0,1.661 10e-4,3.322 10e-4,4.984 0,0.318 0.034,2.373 1.715,3.83 1.262,1.095 2.694,1.192 3.133,1.205 h 7.514 L 14.839,-30 c 0.026,-0.09 0.293,-1.08 -0.375,-1.902 -0.483,-0.594 -1.268,-0.872 -2.035,-0.723 H 9.911 v -2.357 h 19.821 v 2.411 h -2.411 c -0.176,0.012 -1.298,0.109 -2.009,1.071 -0.446,0.604 -0.501,1.238 -0.508,1.5 V 9.964 h 7.607 c 0.203,0.035 2.162,0.335 3.669,-1.125 1.61,-1.558 1.236,-3.699 1.206,-3.857 V 0 l 2.625,-0.054 V 12.375 C 26.589,12.411 13.268,12.446 -0.054,12.482 -0.036,8.321 -0.018,4.161 0,0" /></g><g
           transform="translate(745.0357,544.5893)"
           id="g100"><path
             id="path102"
             style="fill:#8b6c36;fill-opacity:1;fill-rule:nonzero;stroke:none"
             d="M 0,0 V -2.464 H 2.464 C 2.618,-2.449 3.483,-2.375 4.205,-3 5.126,-3.796 4.977,-5.001 4.964,-5.089 V -42.696 C 4.99,-42.828 5.13,-43.625 4.607,-44.304 4.132,-44.921 3.296,-45.195 2.482,-45 H 0 v -2.464 h 39.911 v 12.428 h -2.465 l 0.054,-4.875 c 0.008,-0.39 0,-2.018 -1.232,-3.428 -1.443,-1.652 -3.433,-1.711 -3.75,-1.715 -6.697,-0.035 -13.393,-0.071 -20.089,-0.107 v 20.25 l 7.526,-0.053 c 0.208,0.006 0.949,0.002 1.607,-0.536 0.9,-0.734 0.888,-1.844 0.884,-1.982 v -2.464 L 24.964,-30 24.911,-17.518 h -2.465 v -2.464 c 0.018,-0.139 0.118,-1.062 -0.562,-1.822 -0.752,-0.839 -1.814,-0.76 -1.929,-0.75 h -7.526 v 20.09 l 20.089,-0.054 c 0.235,0.017 2.424,0.138 3.911,-1.607 1.241,-1.457 1.102,-3.169 1.071,-3.482 v -4.875 l 2.411,-0.054 V 0 Z" /></g><g
           transform="translate(792.5,544.5893)"
           id="g104"><path
             id="path106"
             style="fill:#8b6c36;fill-opacity:1;fill-rule:nonzero;stroke:none"
             d="M 0,0 V -2.464 H 2.625 L 4.929,-5.036 V -42.589 L 2.464,-45 H 0 v -2.464 h 39.964 v 12.375 h -2.571 l 0.053,-4.875 -4.982,-5.09 L 12.429,-45 v 40.018 l 2.517,2.464 h 2.465 V 0 Z" /></g><g
           transform="translate(862.5179,544.6429)"
           id="g108"><path
             id="path110"
             style="fill:#8b6c36;fill-opacity:1;fill-rule:nonzero;stroke:none"
             d="m 0,0 v -2.518 h 2.411 c 0.695,0.28 1.481,0.169 2.035,-0.295 0.656,-0.547 0.881,-1.496 0.536,-2.33 v -37.5 c 0.004,-0.238 -0.018,-0.875 -0.455,-1.473 -0.711,-0.972 -1.899,-0.991 -2.036,-0.991 H 0 v -2.464 h 12.375 v 2.41 l -2.411,0.054 c -0.058,-0.01 -1.283,-0.187 -2.062,0.75 -0.641,0.771 -0.48,1.694 -0.456,1.821 0.018,9.982 0.036,19.965 0.054,29.947 L 23.732,-47.571 37.446,-15 v -27.75 c 0.009,-0.179 0.027,-0.944 -0.535,-1.607 -0.709,-0.836 -1.746,-0.809 -1.875,-0.804 h -2.572 l 0.054,-2.41 h 19.928 v 2.41 h -2.517 c -0.178,0.017 -1.396,0.152 -2.09,1.206 -0.373,0.566 -0.423,1.14 -0.428,1.419 v 37.5 c -0.173,0.721 0.052,1.48 0.589,1.982 0.809,0.758 1.863,0.5 1.929,0.483 0.839,-0.018 1.678,-0.036 2.517,-0.054 0.005,0.862 0.009,1.723 0.014,2.585 H 37.433 C 33.696,-10.866 29.96,-21.692 26.223,-32.518 L 14.893,0 Z" /></g><g
           transform="translate(967.4643,544.5893)"
           id="g112"><path
             id="path114"
             style="fill:#8b6c36;fill-opacity:1;fill-rule:nonzero;stroke:none"
             d="M 0,0 V -2.411 H 2.518 C 2.643,-2.398 3.622,-2.32 4.366,-3.08 5.15,-3.882 5,-4.925 4.982,-5.036 c 0.018,-12.5 0.036,-25 0.054,-37.5 -0.015,-0.188 -0.111,-1.215 -0.991,-1.928 -0.611,-0.495 -1.271,-0.573 -1.527,-0.59 H 0 v -2.464 h 17.464 v 2.464 H 15 c -0.226,0.033 -1.194,0.2 -1.875,1.072 -0.467,0.597 -0.564,1.224 -0.589,1.5 v 12.375 l 6.214,3.803 11.196,-18.696 -2.41,-0.054 -0.054,-2.464 h 17.572 v 2.411 l -2.518,0.053 c -0.479,0.213 -1.07,0.527 -1.688,0.991 -0.679,0.511 -1.177,1.042 -1.527,1.474 -3.946,6.696 -7.892,13.393 -11.839,20.089 -0.225,0.27 -0.845,1.087 -0.911,2.304 -0.08,1.479 0.717,2.497 0.911,2.732 l 12.429,12.428 2.625,2.518 h 2.518 V 0 H 32.571 l 0.054,-2.464 h 2.411 L 34.982,-4.875 17.464,-22.607 h -4.982 v 17.571 c -0.018,0.107 -0.173,1.1 0.563,1.875 0.783,0.826 1.869,0.658 1.955,0.643 h 2.518 V 0 Z" /></g><g
           transform="translate(1062.3928,544.6429)"
           id="g116"><path
             id="path118"
             style="fill:#8b6c36;fill-opacity:1;fill-rule:nonzero;stroke:none"
             d="m 0,0 v -2.571 h 2.571 c 0.291,-0.066 1.045,-0.276 1.688,-0.965 0.552,-0.591 0.737,-1.231 0.803,-1.526 v -37.527 c 0.027,-0.125 0.201,-1.019 -0.401,-1.768 -0.495,-0.616 -1.322,-0.896 -2.13,-0.723 H 0 v -2.411 h 12.616 v 2.411 h -2.491 c -0.855,-0.105 -1.688,0.228 -2.17,0.884 -0.493,0.671 -0.425,1.417 -0.401,1.607 v 32.625 l 22.66,-37.527 h 7.393 v 42.429 c -0.012,0.147 -0.065,0.99 0.563,1.687 0.748,0.832 1.818,0.735 1.928,0.723 h 2.491 V 0 H 30.134 l 0.08,-2.491 2.331,-0.08 c 0.068,0.006 1.354,0.113 2.089,-0.884 0.497,-0.675 0.425,-1.424 0.402,-1.607 0.027,-9.161 0.053,-18.322 0.08,-27.483 L 12.777,0 Z" /></g><g
           transform="translate(1159.9464,512.1786)"
           id="g120"><path
             id="path122"
             style="fill:#8b6c36;fill-opacity:1;fill-rule:nonzero;stroke:none"
             d="m 0,0 c -0.411,-1.295 -0.874,-3.314 -0.723,-5.786 0.101,-1.665 0.452,-3.058 0.803,-4.098 0.387,-0.711 0.995,-1.646 1.929,-2.571 1.208,-1.198 2.453,-1.876 3.295,-2.25 2.674,-1.036 7.154,-2.37 12.776,-2.17 3.907,0.139 7.123,0.974 9.402,1.768 0.86,0.543 1.915,1.322 2.973,2.411 0.917,0.942 1.596,1.869 2.09,2.651 0.552,1.507 1.127,3.588 1.285,6.107 0.243,3.869 -0.609,6.98 -1.285,8.84 -0.395,0.901 -1.117,2.244 -2.411,3.536 -0.921,0.918 -1.848,1.53 -2.572,1.928 -1.597,1.031 -3.919,2.281 -6.91,3.134 -2.321,0.662 -4.396,0.899 -6.027,0.964 -1.509,-0.013 -3.809,0.167 -6.348,1.206 -1.311,0.536 -2.381,1.177 -3.215,1.767 -0.315,0.67 -0.68,1.657 -0.803,2.893 -0.215,2.155 0.428,3.848 0.803,4.661 0.457,0.737 1.084,1.607 1.929,2.491 1.057,1.106 2.12,1.881 2.973,2.411 1.287,0.517 3.478,1.212 6.268,1.205 2.749,-0.006 4.908,-0.691 6.188,-1.205 0.973,-0.534 2.292,-1.412 3.535,-2.813 0.705,-0.793 1.225,-1.574 1.607,-2.25 -0.894,-0.07 -2.23,-0.284 -3.696,-0.964 -1.049,-0.486 -1.853,-1.066 -2.425,-1.55 -0.338,-0.313 -1.214,-1.207 -1.505,-2.659 -0.397,-1.983 0.595,-3.505 0.796,-3.8 0.29,-0.41 0.931,-1.195 2.036,-1.714 1.597,-0.75 3.083,-0.436 3.536,-0.322 0.714,0.039 2.089,0.212 3.535,1.072 1.134,0.674 1.852,1.498 2.25,2.036 0.394,0.582 0.936,1.548 1.179,2.839 0.409,2.174 -0.244,3.942 -0.723,4.982 -0.466,1.009 -1.234,2.362 -2.491,3.696 -2.057,2.183 -4.346,3.174 -5.625,3.617 -1.718,0.672 -4.481,1.508 -7.956,1.526 C 12.231,33.611 8.952,32.402 7.152,31.58 6.023,31.041 4.403,30.105 2.813,28.527 1.433,27.158 0.549,25.776 0,24.75 -0.469,23.412 -0.997,21.42 -1.045,18.964 -1.099,16.146 -0.5,13.882 0,12.455 0.719,11.21 1.841,9.572 3.536,7.955 4.982,6.575 6.412,5.625 7.554,4.982 c 3.401,-0.83 6.803,-1.661 10.205,-2.491 1.334,-0.275 3.159,-0.797 5.143,-1.848 2.081,-1.102 3.589,-2.389 4.58,-3.375 0.263,-1.092 0.493,-2.514 0.482,-4.179 -0.008,-1.233 -0.146,-2.318 -0.321,-3.214 -0.363,-0.45 -0.814,-0.947 -1.366,-1.446 -0.418,-0.379 -0.827,-0.698 -1.206,-0.965 -1.936,-0.617 -4.565,-1.236 -7.714,-1.366 -4.185,-0.173 -7.614,0.587 -9.884,1.286 -0.634,0.166 -2.448,0.732 -3.777,2.491 -0.762,1.01 -1.07,2.023 -1.205,2.652 C 2.292,-6.529 2.127,-5.392 2.089,-4.098 2.042,-2.494 2.203,-1.103 2.411,0 Z" /></g><g
           transform="translate(431.2411,544.5357)"
           id="g124"><path
             id="path126"
             style="fill:#8b6c36;fill-opacity:1;fill-rule:nonzero;stroke:none"
             d="m 0,0 v -2.464 h 2.357 c 0.305,-0.012 1.07,-0.086 1.768,-0.643 1.196,-0.955 1.134,-2.486 1.125,-2.652 0.07,-6.675 0.04,-12.068 0,-15.75 -0.06,-5.526 -0.15,-7.785 0.402,-11.33 0.844,-5.427 1.388,-8.923 4.205,-11.974 4.599,-4.98 11.568,-4.779 12.938,-4.741 1.663,0.048 6.337,0.247 10.366,3.616 2.856,2.389 4.017,5.224 4.982,7.581 1.699,4.15 1.947,7.86 1.928,10.098 v 23.545 c -0.015,0.137 -0.084,0.896 0.456,1.526 0.468,0.547 1.218,0.79 1.955,0.643 h 2.411 V 0 H 30.027 v -2.464 l 2.411,-0.081 c 0.326,-0.088 0.922,-0.296 1.499,-0.803 0.677,-0.595 0.96,-1.281 1.072,-1.607 0.148,-11.98 0.22,-21.221 0.375,-26.679 0.025,-0.864 0.094,-3.126 -0.857,-5.786 -0.519,-1.45 -1.761,-4.952 -5.366,-7.009 -0.419,-0.239 -5.217,-2.871 -10.146,-0.544 -3.625,1.712 -5.047,5.033 -5.542,6.187 -1.034,2.416 -1.103,4.608 -1.044,5.866 l -0.081,28.125 c 0.003,0.107 0.054,1.356 1.098,2.009 0.659,0.412 1.336,0.351 1.554,0.322 h 2.33 L 17.411,0 Z" /></g><g
           transform="translate(918.7209,544.6429)"
           id="g128"><path
             id="path130"
             style="fill:#8b6c36;fill-opacity:1;fill-rule:nonzero;stroke:none"
             d="M 0,0 V -2.491 H 2.411 L 17.679,-34.875 V -44.92 h -5.063 l 0.08,-2.491 h 19.849 v 2.25 l -4.902,0.081 v 10.205 L 42.589,-2.491 H 45 V 0 H 32.705 l 0.081,-2.491 h 4.821 l -11.25,-27.402 -11.25,27.402 h 2.411 V 0 Z" /></g><g
           transform="translate(1034.817,496.4286)"
           id="g132"><path
             id="path134"
             style="fill:#8b6c36;fill-opacity:1;fill-rule:nonzero;stroke:none"
             d="M 0,0 C -9.165,0 -16.594,10.577 -16.594,23.625 -16.594,36.673 -9.165,47.25 0,47.25 9.164,47.25 16.594,36.673 16.594,23.625 16.594,10.577 9.164,0 0,0 m 0.08,48.857 c -13.78,0 -24.951,-11.297 -24.951,-25.232 0,-13.935 11.171,-25.232 24.951,-25.232 13.78,0 24.951,11.297 24.951,25.232 0,13.935 -11.171,25.232 -24.951,25.232" /></g><g
           transform="translate(1130.7098,496.4286)"
           id="g136"><path
             id="path138"
             style="fill:#8b6c36;fill-opacity:1;fill-rule:nonzero;stroke:none"
             d="M 0,0 C -9.165,0 -16.594,10.577 -16.594,23.625 -16.594,36.673 -9.165,47.25 0,47.25 9.164,47.25 16.594,36.673 16.594,23.625 16.594,10.577 9.164,0 0,0 m 0.08,48.857 c -13.78,0 -24.951,-11.297 -24.951,-25.232 0,-13.935 11.171,-25.232 24.951,-25.232 13.78,0 24.951,11.297 24.951,25.232 0,13.935 -11.171,25.232 -24.951,25.232" /></g></g></g></g></svg>