<?xml version="1.0" encoding="UTF-8" standalone="no"?>
<svg
   xmlns:dc="http://purl.org/dc/elements/1.1/"
   xmlns:cc="http://creativecommons.org/ns#"
   xmlns:rdf="http://www.w3.org/1999/02/22-rdf-syntax-ns#"
   xmlns:svg="http://www.w3.org/2000/svg"
   xmlns="http://www.w3.org/2000/svg"
   viewBox="0 0 755.90668 755.90668"
   height="755.90668"
   width="755.90668"
   xml:space="preserve"
   id="svg2"
   version="1.1"><metadata
     id="metadata8"><rdf:RDF><cc:Work
         rdf:about=""><dc:format>image/svg+xml</dc:format><dc:type
           rdf:resource="http://purl.org/dc/dcmitype/StillImage" /></cc:Work></rdf:RDF></metadata><defs
     id="defs6"><clipPath
       id="clipPath18"
       clipPathUnits="userSpaceOnUse"><path
         id="path16"
         d="M 0,566.93 H 566.93 V 0 H 0 Z" /></clipPath></defs><g
     transform="matrix(1.3333333,0,0,-1.3333333,0,755.90667)"
     id="g10"><g
       id="g12"><g
         clip-path="url(#clipPath18)"
         id="g14"><g
           transform="translate(39.1816,204.5023)"
           id="g20"><path
             id="path22"
             style="fill:#393536;fill-opacity:1;fill-rule:nonzero;stroke:none"
             d="m 0,0 c 0,-5.631 1.615,-10.173 4.833,-13.65 3.219,-3.477 7.751,-5.221 13.574,-5.221 5.835,0 10.356,1.744 13.575,5.221 3.229,3.477 4.833,8.019 4.833,13.65 0,5.619 -1.604,10.172 -4.833,13.649 -3.219,3.477 -7.74,5.221 -13.575,5.221 C 12.584,18.87 8.052,17.126 4.833,13.649 1.615,10.172 0,5.619 0,0 m -23.004,0 c 0,5.931 1.076,11.303 3.218,16.104 2.153,4.811 5.081,8.923 8.817,12.346 3.735,3.435 8.137,6.061 13.197,7.902 5.06,1.84 10.453,2.766 16.179,2.766 5.727,0 11.12,-0.926 16.191,-2.766 5.059,-1.841 9.451,-4.467 13.186,-7.902 3.736,-3.423 6.674,-7.535 8.827,-12.346 C 58.753,11.303 59.83,5.931 59.83,0 c 0,-5.932 -1.077,-11.304 -3.219,-16.104 -2.153,-4.812 -5.091,-8.924 -8.827,-12.347 -3.735,-3.435 -8.127,-6.061 -13.186,-7.902 -5.071,-1.84 -10.464,-2.766 -16.191,-2.766 -5.726,0 -11.119,0.926 -16.179,2.766 -5.06,1.841 -9.462,4.467 -13.197,7.902 -3.736,3.423 -6.664,7.535 -8.817,12.347 -2.142,4.8 -3.218,10.172 -3.218,16.104" /></g><g
           transform="translate(126.4619,207.1068)"
           id="g24"><path
             id="path26"
             style="fill:#393536;fill-opacity:1;fill-rule:nonzero;stroke:none"
             d="M 0,0 -24.845,34.673 H 2.303 L 15.49,14.425 28.225,34.673 h 25.62 L 29.603,0 58.291,-39.883 H 31.142 L 14.876,-15.027 -2.605,-39.883 h -26.848 z" /></g><g
           transform="translate(205.7651,204.5023)"
           id="g28"><path
             id="path30"
             style="fill:#393536;fill-opacity:1;fill-rule:nonzero;stroke:none"
             d="m 0,0 c 0,-5.631 1.615,-10.173 4.833,-13.65 3.219,-3.477 7.751,-5.221 13.575,-5.221 5.834,0 10.356,1.744 13.574,5.221 3.229,3.477 4.833,8.019 4.833,13.65 0,5.619 -1.604,10.172 -4.833,13.649 -3.218,3.477 -7.74,5.221 -13.574,5.221 C 12.584,18.87 8.052,17.126 4.833,13.649 1.615,10.172 0,5.619 0,0 m -23.004,0 c 0,5.931 1.076,11.303 3.219,16.104 2.153,4.811 5.08,8.923 8.816,12.346 3.735,3.435 8.138,6.061 13.198,7.902 5.059,1.84 10.452,2.766 16.179,2.766 5.727,0 11.12,-0.926 16.19,-2.766 5.059,-1.841 9.451,-4.467 13.187,-7.902 3.735,-3.423 6.674,-7.535 8.827,-12.346 C 58.754,11.303 59.831,5.931 59.831,0 c 0,-5.932 -1.077,-11.304 -3.219,-16.104 -2.153,-4.812 -5.092,-8.924 -8.827,-12.347 -3.736,-3.435 -8.128,-6.061 -13.187,-7.902 -5.07,-1.84 -10.463,-2.766 -16.19,-2.766 -5.727,0 -11.12,0.926 -16.179,2.766 -5.06,1.841 -9.463,4.467 -13.198,7.902 -3.736,3.423 -6.663,7.535 -8.816,12.347 -2.143,4.8 -3.219,10.172 -3.219,16.104" /></g><g
           transform="translate(323.7354,223.3724)"
           id="g32"><path
             id="path34"
             style="fill:#393536;fill-opacity:1;fill-rule:nonzero;stroke:none"
             d="m 0,0 h -20.248 v -24.855 c 0,-2.046 0.097,-3.909 0.312,-5.598 0.194,-1.691 0.657,-3.144 1.378,-4.371 0.71,-1.227 1.809,-2.174 3.294,-2.842 1.486,-0.667 3.455,-0.99 5.91,-0.99 1.227,0 2.831,0.129 4.833,0.377 1.992,0.258 3.499,0.85 4.521,1.765 v -19.172 c -2.562,-0.925 -5.21,-1.54 -7.977,-1.84 -2.755,-0.313 -5.467,-0.463 -8.127,-0.463 -3.885,0 -7.47,0.409 -10.743,1.226 -3.272,0.819 -6.135,2.121 -8.59,3.919 -2.455,1.787 -4.371,4.113 -5.749,6.976 -1.377,2.863 -2.066,6.34 -2.066,10.43 V 0 h -14.727 v 18.407 h 14.727 v 22.09 h 23.004 V 18.407 H 0 Z" /></g><g
           transform="translate(380.3369,212.9417)"
           id="g36"><path
             id="path38"
             style="fill:#393536;fill-opacity:1;fill-rule:nonzero;stroke:none"
             d="m 0,0 c 0.097,3.886 -1.185,7.212 -3.844,9.968 -2.658,2.766 -6.082,4.144 -10.269,4.144 -2.562,0 -4.812,-0.409 -6.749,-1.227 -1.949,-0.819 -3.607,-1.873 -4.995,-3.144 -1.378,-1.28 -2.455,-2.765 -3.219,-4.456 C -29.84,3.605 -30.281,1.841 -30.378,0 Z m 19.473,-32.833 c -3.681,-4.704 -8.331,-8.332 -13.951,-10.883 -5.63,-2.562 -11.464,-3.843 -17.493,-3.843 -5.726,0 -11.12,0.926 -16.179,2.767 -5.07,1.841 -9.462,4.467 -13.198,7.901 -3.735,3.423 -6.673,7.536 -8.816,12.347 -2.152,4.801 -3.219,10.173 -3.219,16.105 0,5.93 1.067,11.302 3.219,16.103 2.143,4.812 5.081,8.924 8.816,12.347 3.736,3.434 8.128,6.06 13.198,7.901 5.059,1.841 10.453,2.767 16.179,2.767 5.318,0 10.152,-0.926 14.5,-2.767 4.338,-1.841 8.02,-4.467 11.045,-7.901 3.014,-3.423 5.339,-7.535 6.976,-12.347 1.636,-4.801 2.454,-10.173 2.454,-16.103 v -7.213 h -53.382 c 0.926,-4.392 2.917,-7.902 5.984,-10.506 3.069,-2.606 6.847,-3.908 11.347,-3.908 3.789,0 6.986,0.839 9.591,2.53 2.605,1.689 4.877,3.853 6.825,6.523 z" /></g><g
           transform="translate(461.6426,217.6995)"
           id="g40"><path
             id="path42"
             style="fill:#393536;fill-opacity:1;fill-rule:nonzero;stroke:none"
             d="m 0,0 c -1.131,1.625 -2.713,2.981 -4.758,4.058 -2.046,1.077 -4.252,1.615 -6.598,1.615 -5.825,0 -10.357,-1.744 -13.576,-5.221 -3.217,-3.477 -4.833,-8.03 -4.833,-13.649 0,-5.631 1.616,-10.173 4.833,-13.651 3.219,-3.476 7.751,-5.22 13.576,-5.22 2.55,0 4.757,0.559 6.598,1.69 1.841,1.119 3.423,2.454 4.758,3.993 l 15.178,-15.953 c -3.574,-3.682 -7.793,-6.275 -12.649,-7.751 -4.865,-1.485 -9.494,-2.227 -13.885,-2.227 -5.728,0 -11.121,0.925 -16.18,2.766 -5.07,1.841 -9.462,4.467 -13.197,7.902 -3.736,3.422 -6.675,7.535 -8.817,12.346 -2.153,4.801 -3.219,10.173 -3.219,16.105 0,5.93 1.066,11.302 3.219,16.103 2.142,4.812 5.081,8.924 8.817,12.347 3.735,3.434 8.127,6.06 13.197,7.901 5.059,1.841 10.452,2.767 16.18,2.767 4.391,0 9.02,-0.742 13.885,-2.228 4.856,-1.486 9.075,-4.058 12.649,-7.74 z" /></g><g
           transform="translate(501.9775,283.1917)"
           id="g44"><path
             id="path46"
             style="fill:#393536;fill-opacity:1;fill-rule:nonzero;stroke:none"
             d="m 0,0 v -51.541 h 0.302 c 0.516,1.432 1.388,2.863 2.616,4.295 1.227,1.432 2.701,2.713 4.445,3.843 1.734,1.12 3.779,2.034 6.136,2.756 2.347,0.71 4.909,1.076 7.665,1.076 5.834,0 10.538,-0.894 14.112,-2.691 3.585,-1.787 6.373,-4.263 8.365,-7.438 1.991,-3.165 3.347,-6.901 4.069,-11.196 0.71,-4.295 1.065,-8.946 1.065,-13.961 v -41.111 H 25.771 v 36.514 c 0,2.141 -0.076,4.37 -0.237,6.674 -0.15,2.293 -0.613,4.414 -1.378,6.362 -0.764,1.938 -1.937,3.53 -3.53,4.758 -1.583,1.227 -3.855,1.841 -6.825,1.841 -2.96,0 -5.362,-0.538 -7.202,-1.616 -1.84,-1.076 -3.251,-2.507 -4.22,-4.294 C 1.399,-67.517 0.765,-69.54 0.463,-71.79 0.151,-74.04 0,-76.387 0,-78.841 v -37.127 H -23.015 V 0 Z" /></g><g
           transform="translate(415.5781,332.7479)"
           id="g48"><path
             id="path50"
             style="fill:#00adef;fill-opacity:1;fill-rule:nonzero;stroke:none"
             d="m 0,0 c -16.116,0 -31.773,5.814 -44.09,16.378 -1.822,1.56 -3.603,3.276 -5.441,5.241 l -4.573,4.889 1.916,-6.412 c 0.752,-2.526 1.318,-4.987 1.669,-7.313 1.385,-9.085 -0.42,-16.198 -5.359,-21.136 -10.817,-10.801 -32.485,-6.24 -61.024,12.837 -9.233,6.186 -21.177,6.191 -30.418,0.004 -28.96,-19.367 -50.063,-23.81 -61.029,-12.837 -4.938,4.934 -6.743,12.047 -5.359,21.132 0.352,2.326 0.917,4.787 1.67,7.313 l 1.916,6.412 -4.573,-4.889 c -1.838,-1.965 -3.619,-3.681 -5.442,-5.241 C -232.453,5.814 -248.11,0 -264.226,0 c -37.432,0 -67.882,30.451 -67.882,67.883 0,37.428 30.45,67.878 67.882,67.878 16.116,0 31.773,-5.814 44.085,-16.374 1.823,-1.555 3.603,-3.271 5.438,-5.237 l 4.574,-4.888 -1.917,6.412 c -0.749,2.51 -1.31,4.971 -1.666,7.308 -1.38,9.082 0.425,16.194 5.363,21.132 10.957,10.941 32.286,6.375 61.025,-12.836 9.233,-6.179 21.173,-6.179 30.422,-0.004 28.968,19.367 50.067,23.809 61.024,12.836 4.939,-4.934 6.744,-12.046 5.359,-21.131 -0.351,-2.331 -0.917,-4.787 -1.669,-7.31 l -1.921,-6.416 4.578,4.893 c 1.838,1.966 3.619,3.682 5.441,5.241 12.313,10.56 27.97,16.374 44.09,16.374 37.432,0 67.883,-30.45 67.883,-67.878 C 67.883,30.451 37.432,0 0,0 m 0,143.099 c -15.396,0 -30.119,-4.652 -42.788,-13.479 -0.192,8.008 -2.841,14.617 -7.902,19.678 -9.581,9.589 -29.554,15.305 -70.294,-11.923 -6.764,-4.529 -15.502,-4.529 -22.258,0 -40.732,27.236 -60.701,21.512 -70.294,11.931 -5.061,-5.065 -7.714,-11.678 -7.907,-19.686 -12.664,8.827 -27.388,13.479 -42.783,13.479 -41.477,0 -75.22,-33.743 -75.22,-75.216 0,-41.477 33.743,-75.22 75.22,-75.22 15.395,0 30.123,4.651 42.788,13.483 0.192,-8.017 2.841,-14.629 7.902,-19.682 9.589,-9.602 29.566,-15.309 70.298,11.927 6.756,4.528 15.49,4.525 22.254,-0.004 19.755,-13.209 36.465,-19.908 49.666,-19.908 8.389,0 15.33,2.687 20.628,7.977 5.061,5.065 7.714,11.677 7.902,19.69 C -30.119,-2.686 -15.396,-7.337 0,-7.337 c 41.477,0 75.22,33.743 75.22,75.22 0,41.473 -33.743,75.216 -75.22,75.216" /></g><g
           transform="translate(353.3984,470.5609)"
           id="g52"><path
             id="path54"
             style="fill:#00adef;fill-opacity:1;fill-rule:nonzero;stroke:none"
             d="m 0,0 c -7.505,7.505 -26.787,1.422 -49.772,-13.949 -12.205,-8.161 -28.12,-8.161 -40.323,0 -22.986,15.371 -42.268,21.454 -49.773,13.949 -7.505,-7.504 -1.422,-26.787 13.949,-49.772 8.161,-12.204 8.161,-28.119 0,-40.323 -15.371,-22.985 -21.454,-42.267 -13.949,-49.772 7.505,-7.505 26.787,-1.422 49.773,13.949 12.203,8.161 28.118,8.161 40.323,0 22.985,-15.371 42.267,-21.454 49.772,-13.949 7.505,7.505 1.422,26.787 -13.949,49.772 -8.161,12.204 -8.161,28.119 0,40.323 C 1.422,-26.787 7.505,-7.504 0,0" /></g><g
           transform="translate(474.5488,400.6273)"
           id="g56"><path
             id="path58"
             style="fill:#00adef;fill-opacity:1;fill-rule:nonzero;stroke:none"
             d="m 0,0 c 0,-32.569 -26.403,-58.972 -58.973,-58.972 -32.569,0 -58.971,26.403 -58.971,58.972 0,32.57 26.402,58.973 58.971,58.973 C -26.403,58.973 0,32.57 0,0" /></g><g
           transform="translate(210.3247,400.6273)"
           id="g60"><path
             id="path62"
             style="fill:#00adef;fill-opacity:1;fill-rule:nonzero;stroke:none"
             d="m 0,0 c 0,-32.569 -26.403,-58.972 -58.972,-58.972 -32.57,0 -58.972,26.403 -58.972,58.972 0,32.57 26.402,58.973 58.972,58.973 C -26.403,58.973 0,32.57 0,0" /></g></g></g></g></svg>