<svg width="20" height="20" viewBox="0 0 20 20" fill="none" xmlns="http://www.w3.org/2000/svg">
<g clip-path="url(#clip0_11_407)">
<path d="M20 19.1667C20 19.6267 19.6267 20 19.1667 20H2.5C1.12167 20 0 18.8784 0 17.5V0.833362C0.005 -0.256638 1.66167 -0.255805 1.66667 0.833362V17.5C1.66667 17.9592 2.04083 18.3334 2.5 18.3334H19.1667C19.6267 18.3334 20 18.7067 20 19.1667ZM17.5 4.1667H14.1667C13.0767 4.1717 13.0775 5.82836 14.1667 5.83336H17.1358L13.0883 9.75586C12.7742 10.0709 12.225 10.0709 11.9108 9.75586C11.8767 9.72253 10.8783 9.01169 10.8783 9.01169C9.93 8.11753 8.31417 8.15086 7.41 9.05419L3.58833 12.7325C3.25667 13.0517 3.24667 13.5792 3.56583 13.9109C3.88583 14.2425 4.4125 14.2525 4.74417 13.9334L8.5775 10.2434C8.89167 9.92836 9.44083 9.92836 9.755 10.2434C9.78917 10.2767 10.7875 10.9875 10.7875 10.9875C11.7367 11.8825 13.3508 11.8509 14.2575 10.9425L18.3325 6.99253V9.99836C18.3375 11.0884 19.9942 11.0875 19.9992 9.99836V6.66503C19.9992 5.2867 18.8775 4.16503 17.4992 4.16503L17.5 4.1667Z" fill="#2C55F1"/>
</g>
<defs>
<clipPath id="clip0_11_407">
<rect width="20" height="20" fill="white"/>
</clipPath>
</defs>
</svg>
