<svg width="900" height="145" viewBox="0 0 900 145" fill="none" xmlns="http://www.w3.org/2000/svg">
<path d="M76.9188 144.981C65.8521 144.981 55.6521 143.248 46.3188 139.781C37.1188 136.181 29.0521 131.115 22.1187 124.581C15.3188 118.048 9.98542 110.381 6.11875 101.581C2.38542 92.7813 0.51875 83.1146 0.51875 72.5813C0.51875 62.048 2.38542 52.3813 6.11875 43.5813C9.98542 34.7813 15.3854 27.1146 22.3188 20.5813C29.2521 14.048 37.3854 9.04796 46.7188 5.58129C56.0521 1.98129 66.3188 0.181296 77.5188 0.181296C89.9188 0.181296 101.052 2.24796 110.919 6.38129C120.919 10.5146 129.319 16.5146 136.119 24.3813L115.319 43.5813C110.252 38.248 104.719 34.3146 98.7188 31.7813C92.7188 29.1146 86.1854 27.7813 79.1188 27.7813C72.3188 27.7813 66.1188 28.848 60.5188 30.9813C54.9188 33.1146 50.0521 36.1813 45.9188 40.1813C41.9188 44.1813 38.7854 48.9146 36.5188 54.3813C34.3854 59.848 33.3188 65.9146 33.3188 72.5813C33.3188 79.1146 34.3854 85.1146 36.5188 90.5813C38.7854 96.048 41.9188 100.848 45.9188 104.981C50.0521 108.981 54.8521 112.048 60.3188 114.181C65.9188 116.315 72.0521 117.381 78.7188 117.381C85.1188 117.381 91.3188 116.381 97.3188 114.381C103.452 112.248 109.385 108.715 115.119 103.781L133.519 127.181C125.919 132.915 117.052 137.315 106.919 140.381C96.9188 143.448 86.9188 144.981 76.9188 144.981ZM103.919 122.981V70.3813H133.519V127.181L103.919 122.981ZM145.216 142.581L207.616 2.58129H239.616L302.216 142.581H268.216L217.016 18.9813H229.816L178.416 142.581H145.216ZM176.416 112.581L185.016 87.9813H257.016L265.816 112.581H176.416ZM316.741 142.581V2.58129H349.141V116.181H419.341V142.581H316.741ZM437.444 142.581V2.58129H469.844V116.181H540.044V142.581H437.444ZM587.947 58.9813H655.347V84.1813H587.947V58.9813ZM590.347 116.581H666.547V142.581H558.147V2.58129H663.947V28.5813H590.347V116.581ZM692.327 142.581V2.58129H752.927C765.46 2.58129 776.26 4.64796 785.327 8.78129C794.393 12.7813 801.393 18.5813 806.327 26.1813C811.26 33.7813 813.727 42.848 813.727 53.3813C813.727 63.7813 811.26 72.7813 806.327 80.3813C801.393 87.848 794.393 93.5813 785.327 97.5813C776.26 101.581 765.46 103.581 752.927 103.581H710.327L724.727 89.3813V142.581H692.327ZM781.327 142.581L746.327 91.7813H780.927L816.327 142.581H781.327ZM724.727 92.9813L710.327 77.7813H751.127C761.127 77.7813 768.593 75.648 773.527 71.3813C778.46 66.9813 780.927 60.9813 780.927 53.3813C780.927 45.648 778.46 39.648 773.527 35.3813C768.593 31.1146 761.127 28.9813 751.127 28.9813H710.327L724.727 13.5813V92.9813ZM872.244 142.581V85.3813L879.644 104.981L818.044 2.58129H852.444L899.644 81.1813H879.844L927.244 2.58129H959.044L897.444 104.981L904.644 85.3813V142.581H872.244Z" fill="#353535" fill-opacity="0.1"/>
</svg>
