<svg width="1280" height="1174" viewBox="0 0 1280 1174" fill="none" xmlns="http://www.w3.org/2000/svg">
<line y1="938.75" x2="1280" y2="938.75" stroke="#353535" stroke-opacity="0.3" stroke-width="0.5"/>
<line y1="1028.75" x2="1280" y2="1028.75" stroke="#353535" stroke-opacity="0.3" stroke-width="0.5"/>
<line y1="758.75" x2="1280" y2="758.75" stroke="#353535" stroke-opacity="0.3" stroke-width="0.5"/>
<line y1="848.75" x2="1280" y2="848.75" stroke="#353535" stroke-opacity="0.3" stroke-width="0.5"/>
<line y1="578.75" x2="1280" y2="578.75" stroke="#353535" stroke-opacity="0.3" stroke-width="0.5"/>
<line y1="668.75" x2="1280" y2="668.75" stroke="#353535" stroke-opacity="0.3" stroke-width="0.5"/>
<line y1="398.75" x2="1280" y2="398.75" stroke="#353535" stroke-opacity="0.3" stroke-width="0.5"/>
<line y1="488.75" x2="1280" y2="488.75" stroke="#353535" stroke-opacity="0.3" stroke-width="0.5"/>
<line y1="218.75" x2="1280" y2="218.75" stroke="#353535" stroke-opacity="0.3" stroke-width="0.5"/>
<line y1="308.75" x2="1280" y2="308.75" stroke="#353535" stroke-opacity="0.3" stroke-width="0.5"/>
<line y1="38.75" x2="1280" y2="38.75" stroke="#353535" stroke-opacity="0.3" stroke-width="0.5"/>
<line y1="128.75" x2="1280" y2="128.75" stroke="#353535" stroke-opacity="0.3" stroke-width="0.5"/>
<line x1="1044.75" y1="1174" x2="1044.75" y2="-106" stroke="#353535" stroke-opacity="0.3" stroke-width="0.5"/>
<line x1="1134.75" y1="1174" x2="1134.75" y2="-106" stroke="#353535" stroke-opacity="0.3" stroke-width="0.5"/>
<line x1="864.75" y1="1174" x2="864.75" y2="-106" stroke="#353535" stroke-opacity="0.3" stroke-width="0.5"/>
<line x1="954.75" y1="1174" x2="954.75" y2="-106" stroke="#353535" stroke-opacity="0.3" stroke-width="0.5"/>
<line x1="684.75" y1="1174" x2="684.75" y2="-106" stroke="#353535" stroke-opacity="0.3" stroke-width="0.5"/>
<line x1="774.75" y1="1174" x2="774.75" y2="-106" stroke="#353535" stroke-opacity="0.3" stroke-width="0.5"/>
<line x1="504.75" y1="1174" x2="504.75" y2="-106" stroke="#353535" stroke-opacity="0.3" stroke-width="0.5"/>
<line x1="594.75" y1="1174" x2="594.75" y2="-106" stroke="#353535" stroke-opacity="0.3" stroke-width="0.5"/>
<line x1="324.75" y1="1174" x2="324.75" y2="-106" stroke="#353535" stroke-opacity="0.3" stroke-width="0.5"/>
<line x1="414.75" y1="1174" x2="414.75" y2="-106" stroke="#353535" stroke-opacity="0.3" stroke-width="0.5"/>
<line x1="144.75" y1="1174" x2="144.75" y2="-106" stroke="#353535" stroke-opacity="0.3" stroke-width="0.5"/>
<line x1="234.75" y1="1174" x2="234.75" y2="-106" stroke="#353535" stroke-opacity="0.3" stroke-width="0.5"/>
<line x1="49.75" y1="1174" x2="49.75" y2="-106" stroke="#353535" stroke-opacity="0.3" stroke-width="0.5"/>
<line x1="1225.75" y1="1174" x2="1225.75" y2="-106" stroke="#353535" stroke-opacity="0.3" stroke-width="0.5"/>
</svg>
