<svg width="174" height="177" viewBox="0 0 174 177" fill="none" xmlns="http://www.w3.org/2000/svg">
<g clip-path="url(#clip0_8_54)">
<path d="M81.6143 168.814C81.6143 173.341 77.9662 177 73.4529 177H40.8072C18.3061 177 0 158.639 0 136.071V21.469C0 -1.09937 18.3061 -19.4602 40.8072 -19.4602H106.099C128.6 -19.4602 146.906 -1.09937 146.906 21.469V37.8407C146.906 42.3674 143.258 46.0265 138.744 46.0265C134.231 46.0265 130.583 42.3674 130.583 37.8407V21.469C130.583 7.92962 119.598 -3.08852 106.099 -3.08852H40.8072C27.3082 -3.08852 16.3229 7.92962 16.3229 21.469V136.071C16.3229 149.61 27.3082 160.628 40.8072 160.628H73.4529C77.9662 160.628 81.6143 164.287 81.6143 168.814ZM114.26 29.6548C114.26 25.1281 110.612 21.469 106.099 21.469H40.8072C36.2939 21.469 32.6457 25.1281 32.6457 29.6548C32.6457 34.1816 36.2939 37.8407 40.8072 37.8407H106.099C110.612 37.8407 114.26 34.1816 114.26 29.6548ZM81.6143 70.584C81.6143 66.0573 77.9662 62.3982 73.4529 62.3982H40.8072C36.2939 62.3982 32.6457 66.0573 32.6457 70.584C32.6457 75.1108 36.2939 78.7699 40.8072 78.7699H73.4529C77.9662 78.7699 81.6143 75.1108 81.6143 70.584ZM40.8072 103.327C36.2939 103.327 32.6457 106.986 32.6457 111.513C32.6457 116.04 36.2939 119.699 40.8072 119.699H57.13C61.6433 119.699 65.2915 116.04 65.2915 111.513C65.2915 106.986 61.6433 103.327 57.13 103.327H40.8072ZM195.874 119.699C195.874 151.288 170.239 177 138.744 177C107.249 177 81.6143 151.288 81.6143 119.699C81.6143 88.1099 107.249 62.3982 138.744 62.3982C170.239 62.3982 195.874 88.1099 195.874 119.699ZM179.552 119.699C179.552 97.1307 161.245 78.7699 138.744 78.7699C116.243 78.7699 97.9372 97.1307 97.9372 119.699C97.9372 142.267 116.243 160.628 138.744 160.628C161.245 160.628 179.552 142.267 179.552 119.699ZM153.5 109.54L135.357 127.009C134.182 128.163 132.264 128.188 131.097 127.025L121.867 117.956C118.635 114.779 113.477 114.829 110.326 118.07C107.168 121.304 107.217 126.477 110.441 129.645L119.679 138.723C123.434 142.398 128.347 144.24 133.252 144.24C138.157 144.24 143.054 142.398 146.743 138.748L164.804 121.361C168.052 118.226 168.158 113.044 165.041 109.786C161.915 106.512 156.74 106.422 153.5 109.549V109.54Z" fill="white" fill-opacity="0.1"/>
</g>
<defs>
<clipPath id="clip0_8_54">
<rect width="174" height="177" fill="white"/>
</clipPath>
</defs>
</svg>
