<svg width="427" height="77" viewBox="0 0 427 77" fill="none" xmlns="http://www.w3.org/2000/svg">
<mask id="path-1-outside-1_136_2157" maskUnits="userSpaceOnUse" x="-2" y="-2" width="439" height="81" fill="black">
<rect fill="white" x="-2" y="-2" width="439" height="81"/>
<path d="M0.485469 77V-5.24521e-06H15.2255L48.0055 54.34H40.1955L72.4255 -5.24521e-06H87.0555L87.2755 77H70.5555L70.4455 25.63H73.5255L47.7855 68.86H39.7555L13.4655 25.63H17.2055V77H0.485469ZM105.544 77V-5.24521e-06H123.364V77H105.544ZM141.638 77V-5.24521e-06H159.458V62.48H198.068V77H141.638ZM198.334 77L232.654 -5.24521e-06H250.254L284.684 77H265.984L237.824 9.02H244.864L216.594 77H198.334ZM215.494 60.5L220.224 46.97H259.824L264.664 60.5H215.494ZM307.086 77V45.54L311.156 56.32L277.276 -5.24521e-06H296.196L322.156 43.23H311.266L337.336 -5.24521e-06H354.826L320.946 56.32L324.906 45.54V77H307.086ZM347.436 77L381.756 -5.24521e-06H399.356L433.786 77H415.086L386.926 9.02H393.966L365.696 77H347.436ZM364.596 60.5L369.326 46.97H408.926L413.766 60.5H364.596Z"/>
</mask>
<path d="M0.485469 77H-1.51453V79H0.485469V77ZM0.485469 -5.72205e-06V-2.00001H-1.51453V-5.72205e-06H0.485469ZM15.2255 -5.72205e-06L16.938 -1.03307L16.3547 -2.00001H15.2255V-5.72205e-06ZM48.0055 54.34V56.34H51.5477L49.718 53.3069L48.0055 54.34ZM40.1955 54.34L38.4753 53.3197L36.6839 56.34H40.1955V54.34ZM72.4255 -5.72205e-06V-2.00001H71.2864L70.7053 -1.02028L72.4255 -5.72205e-06ZM87.0555 -5.72205e-06L89.0555 -0.00572014L89.0498 -2.00001H87.0555V-5.72205e-06ZM87.2755 77V79H89.2812L89.2755 76.9943L87.2755 77ZM70.5555 77L68.5555 77.0043L68.5598 79H70.5555V77ZM70.4455 25.63V23.63H68.4412L68.4455 25.6343L70.4455 25.63ZM73.5255 25.63L75.2439 26.6532L77.044 23.63H73.5255V25.63ZM47.7855 68.86V70.86H48.9223L49.5039 69.8832L47.7855 68.86ZM39.7555 68.86L38.0467 69.8992L38.631 70.86H39.7555V68.86ZM13.4655 25.63V23.63H9.90838L11.7567 26.6692L13.4655 25.63ZM17.2055 25.63H19.2055V23.63H17.2055V25.63ZM17.2055 77V79H19.2055V77H17.2055ZM2.48547 77V-5.72205e-06H-1.51453V77H2.48547ZM0.485469 1.99999H15.2255V-2.00001H0.485469V1.99999ZM13.5129 1.03306L46.2929 55.3731L49.718 53.3069L16.938 -1.03307L13.5129 1.03306ZM48.0055 52.34H40.1955V56.34H48.0055V52.34ZM41.9157 55.3603L74.1457 1.02027L70.7053 -1.02028L38.4753 53.3197L41.9157 55.3603ZM72.4255 1.99999H87.0555V-2.00001H72.4255V1.99999ZM85.0555 0.00570869L85.2755 77.0057L89.2755 76.9943L89.0555 -0.00572014L85.0555 0.00570869ZM87.2755 75H70.5555V79H87.2755V75ZM72.5555 76.9957L72.4455 25.6257L68.4455 25.6343L68.5555 77.0043L72.5555 76.9957ZM70.4455 27.63H73.5255V23.63H70.4455V27.63ZM71.807 24.6068L46.067 67.8368L49.5039 69.8832L75.2439 26.6532L71.807 24.6068ZM47.7855 66.86H39.7555V70.86H47.7855V66.86ZM41.4643 67.8208L15.1743 24.5908L11.7567 26.6692L38.0467 69.8992L41.4643 67.8208ZM13.4655 27.63H17.2055V23.63H13.4655V27.63ZM15.2055 25.63V77H19.2055V25.63H15.2055ZM17.2055 75H0.485469V79H17.2055V75ZM105.544 77H103.544V79H105.544V77ZM105.544 -5.72205e-06V-2.00001H103.544V-5.72205e-06H105.544ZM123.364 -5.72205e-06H125.364V-2.00001H123.364V-5.72205e-06ZM123.364 77V79H125.364V77H123.364ZM107.544 77V-5.72205e-06H103.544V77H107.544ZM105.544 1.99999H123.364V-2.00001H105.544V1.99999ZM121.364 -5.72205e-06V77H125.364V-5.72205e-06H121.364ZM123.364 75H105.544V79H123.364V75ZM141.638 77H139.638V79H141.638V77ZM141.638 -5.72205e-06V-2.00001H139.638V-5.72205e-06H141.638ZM159.458 -5.72205e-06H161.458V-2.00001H159.458V-5.72205e-06ZM159.458 62.48H157.458V64.48H159.458V62.48ZM198.068 62.48H200.068V60.48H198.068V62.48ZM198.068 77V79H200.068V77H198.068ZM143.638 77V-5.72205e-06H139.638V77H143.638ZM141.638 1.99999H159.458V-2.00001H141.638V1.99999ZM157.458 -5.72205e-06V62.48H161.458V-5.72205e-06H157.458ZM159.458 64.48H198.068V60.48H159.458V64.48ZM196.068 62.48V77H200.068V62.48H196.068ZM198.068 75H141.638V79H198.068V75ZM198.334 77L196.507 76.1858L195.253 79H198.334V77ZM232.654 -5.72205e-06V-2.00001H231.356L230.827 -0.814219L232.654 -5.72205e-06ZM250.254 -5.72205e-06L252.08 -0.816395L251.551 -2.00001H250.254V-5.72205e-06ZM284.684 77V79H287.769L286.51 76.1836L284.684 77ZM265.984 77L264.136 77.7654L264.648 79H265.984V77ZM237.824 9.02V7.02H234.831L235.976 9.7854L237.824 9.02ZM244.864 9.02L246.711 9.78795L247.862 7.02H244.864V9.02ZM216.594 77V79H217.929L218.441 77.768L216.594 77ZM215.494 60.5L213.606 59.84L212.676 62.5H215.494V60.5ZM220.224 46.97V44.97H218.805L218.336 46.31L220.224 46.97ZM259.824 46.97L261.707 46.2964L261.233 44.97H259.824V46.97ZM264.664 60.5V62.5H267.504L266.547 59.8264L264.664 60.5ZM200.161 77.8142L234.481 0.814209L230.827 -0.814219L196.507 76.1858L200.161 77.8142ZM232.654 1.99999H250.254V-2.00001H232.654V1.99999ZM248.428 0.816383L282.858 77.8164L286.51 76.1836L252.08 -0.816395L248.428 0.816383ZM284.684 75H265.984V79H284.684V75ZM267.832 76.2346L239.672 8.25459L235.976 9.7854L264.136 77.7654L267.832 76.2346ZM237.824 11.02H244.864V7.02H237.824V11.02ZM243.018 8.25204L214.748 76.232L218.441 77.768L246.711 9.78795L243.018 8.25204ZM216.594 75H198.334V79H216.594V75ZM217.382 61.16L222.112 47.63L218.336 46.31L213.606 59.84L217.382 61.16ZM220.224 48.97H259.824V44.97H220.224V48.97ZM257.941 47.6436L262.781 61.1736L266.547 59.8264L261.707 46.2964L257.941 47.6436ZM264.664 58.5H215.494V62.5H264.664V58.5ZM307.086 77H305.086V79H307.086V77ZM307.086 45.54L308.957 44.8336L305.086 45.54H307.086ZM311.156 56.32L309.443 57.351L313.027 55.6136L311.156 56.32ZM277.276 -5.72205e-06V-2.00001H273.739L275.563 1.03095L277.276 -5.72205e-06ZM296.196 -5.72205e-06L297.911 -1.02964L297.328 -2.00001H296.196V-5.72205e-06ZM322.156 43.23V45.23H325.69L323.871 42.2004L322.156 43.23ZM311.266 43.23L309.554 42.1972L307.725 45.23H311.266V43.23ZM337.336 -5.72205e-06V-2.00001H336.207L335.624 -1.03284L337.336 -5.72205e-06ZM354.826 -5.72205e-06L356.54 1.03095L358.364 -2.00001H354.826V-5.72205e-06ZM320.946 56.32L319.069 55.6304L322.66 57.351L320.946 56.32ZM324.906 45.54H326.906L323.029 44.8504L324.906 45.54ZM324.906 77V79H326.906V77H324.906ZM309.086 77V45.54H305.086V77H309.086ZM305.215 46.2464L309.285 57.0264L313.027 55.6136L308.957 44.8336L305.215 46.2464ZM312.87 55.289L278.99 -1.03097L275.563 1.03095L309.443 57.351L312.87 55.289ZM277.276 1.99999H296.196V-2.00001H277.276V1.99999ZM294.482 1.02963L320.442 44.2596L323.871 42.2004L297.911 -1.02964L294.482 1.02963ZM322.156 41.23H311.266V45.23H322.156V41.23ZM312.979 44.2628L339.049 1.03283L335.624 -1.03284L309.554 42.1972L312.979 44.2628ZM337.336 1.99999H354.826V-2.00001H337.336V1.99999ZM353.113 -1.03097L319.233 55.289L322.66 57.351L356.54 1.03095L353.113 -1.03097ZM322.824 57.0096L326.784 46.2296L323.029 44.8504L319.069 55.6304L322.824 57.0096ZM322.906 45.54V77H326.906V45.54H322.906ZM324.906 75H307.086V79H324.906V75ZM347.436 77L345.609 76.1858L344.355 79H347.436V77ZM381.756 -5.72205e-06V-2.00001H380.458L379.929 -0.814219L381.756 -5.72205e-06ZM399.356 -5.72205e-06L401.182 -0.816395L400.652 -2.00001H399.356V-5.72205e-06ZM433.786 77V79H436.871L435.612 76.1836L433.786 77ZM415.086 77L413.238 77.7654L413.749 79H415.086V77ZM386.926 9.02V7.02H383.932L385.078 9.7854L386.926 9.02ZM393.966 9.02L395.812 9.78795L396.964 7.02H393.966V9.02ZM365.696 77V79H367.03L367.542 77.768L365.696 77ZM364.596 60.5L362.708 59.84L361.778 62.5H364.596V60.5ZM369.326 46.97V44.97H367.906L367.438 46.31L369.326 46.97ZM408.926 46.97L410.809 46.2964L410.334 44.97H408.926V46.97ZM413.766 60.5V62.5H416.605L415.649 59.8264L413.766 60.5ZM349.263 77.8142L383.583 0.814209L379.929 -0.814219L345.609 76.1858L349.263 77.8142ZM381.756 1.99999H399.356V-2.00001H381.756V1.99999ZM397.53 0.816383L431.96 77.8164L435.612 76.1836L401.182 -0.816395L397.53 0.816383ZM433.786 75H415.086V79H433.786V75ZM416.934 76.2346L388.774 8.25459L385.078 9.7854L413.238 77.7654L416.934 76.2346ZM386.926 11.02H393.966V7.02H386.926V11.02ZM392.119 8.25204L363.849 76.232L367.542 77.768L395.812 9.78795L392.119 8.25204ZM365.696 75H347.436V79H365.696V75ZM366.484 61.16L371.214 47.63L367.438 46.31L362.708 59.84L366.484 61.16ZM369.326 48.97H408.926V44.97H369.326V48.97ZM407.043 47.6436L411.883 61.1736L415.649 59.8264L410.809 46.2964L407.043 47.6436ZM413.766 58.5H364.596V62.5H413.766V58.5Z" fill="white" fill-opacity="0.2" mask="url(#path-1-outside-1_136_2157)"/>
</svg>
