<svg width="1275" height="231" viewBox="0 0 1275 231" fill="none" xmlns="http://www.w3.org/2000/svg">
<mask id="path-1-outside-1_64_364" maskUnits="userSpaceOnUse" x="-2" y="-2" width="1306" height="235" fill="black">
<rect fill="white" x="-2" y="-2" width="1306" height="235"/>
<path d="M0.456408 231V-1.57356e-05H44.6764L143.016 163.02H119.586L216.276 -1.57356e-05H260.166L260.826 231H210.666L210.336 76.89H219.576L142.356 206.58H118.266L39.3964 76.89H50.6164V231H0.456408ZM315.632 231V-1.57356e-05H369.092V231H315.632ZM423.913 231V-1.57356e-05H477.373V187.44H593.203V231H423.913ZM594.003 231L696.963 -1.57356e-05H749.763L853.053 231H796.953L712.473 27.06H733.593L648.783 231H594.003ZM645.483 181.5L659.673 140.91H778.473L792.993 181.5H645.483ZM920.259 231V136.62L932.469 168.96L830.829 -1.57356e-05H887.589L965.469 129.69H932.799L1011.01 -1.57356e-05H1063.48L961.839 168.96L973.719 136.62V231H920.259ZM1041.31 231L1144.27 -1.57356e-05H1197.07L1300.36 231H1244.26L1159.78 27.06H1180.9L1096.09 231H1041.31ZM1092.79 181.5L1106.98 140.91H1225.78L1240.3 181.5H1092.79Z"/>
</mask>
<path d="M0.456408 231H-1.54359V233H0.456408V231ZM0.456408 -1.52588e-05V-2.00002H-1.54359V-1.52588e-05H0.456408ZM44.6764 -1.52588e-05L46.3889 -1.03308L45.8056 -2.00002H44.6764V-1.52588e-05ZM143.016 163.02V165.02H146.559L144.729 161.987L143.016 163.02ZM119.586 163.02L117.866 162L116.075 165.02H119.586V163.02ZM216.276 -1.52588e-05V-2.00002H215.137L214.556 -1.02029L216.276 -1.52588e-05ZM260.166 -1.52588e-05L262.166 -0.00572968L262.161 -2.00002H260.166V-1.52588e-05ZM260.826 231V233H262.832L262.826 230.994L260.826 231ZM210.666 231L208.666 231.004L208.671 233H210.666V231ZM210.336 76.89V74.89H208.332L208.336 76.8943L210.336 76.89ZM219.576 76.89L221.295 77.9132L223.095 74.89H219.576V76.89ZM142.356 206.58V208.58H143.493L144.075 207.603L142.356 206.58ZM118.266 206.58L116.558 207.619L117.142 208.58H118.266V206.58ZM39.3964 76.89V74.89H35.8393L37.6876 77.9292L39.3964 76.89ZM50.6164 76.89H52.6164V74.89H50.6164V76.89ZM50.6164 231V233H52.6164V231H50.6164ZM2.45641 231V-1.52588e-05H-1.54359V231H2.45641ZM0.456408 1.99998H44.6764V-2.00002H0.456408V1.99998ZM42.9639 1.03305L141.304 164.053L144.729 161.987L46.3889 -1.03308L42.9639 1.03305ZM143.016 161.02H119.586V165.02H143.016V161.02ZM121.307 164.04L217.997 1.02026L214.556 -1.02029L117.866 162L121.307 164.04ZM216.276 1.99998H260.166V-2.00002H216.276V1.99998ZM258.166 0.00569916L258.826 231.006L262.826 230.994L262.166 -0.00572968L258.166 0.00569916ZM260.826 229H210.666V233H260.826V229ZM212.666 230.996L212.336 76.8857L208.336 76.8943L208.666 231.004L212.666 230.996ZM210.336 78.89H219.576V74.89H210.336V78.89ZM217.858 75.8668L140.638 205.557L144.075 207.603L221.295 77.9132L217.858 75.8668ZM142.356 204.58H118.266V208.58H142.356V204.58ZM119.975 205.541L41.1052 75.8508L37.6876 77.9292L116.558 207.619L119.975 205.541ZM39.3964 78.89H50.6164V74.89H39.3964V78.89ZM48.6164 76.89V231H52.6164V76.89H48.6164ZM50.6164 229H0.456408V233H50.6164V229ZM315.632 231H313.632V233H315.632V231ZM315.632 -1.52588e-05V-2.00002H313.632V-1.52588e-05H315.632ZM369.092 -1.52588e-05H371.092V-2.00002H369.092V-1.52588e-05ZM369.092 231V233H371.092V231H369.092ZM317.632 231V-1.52588e-05H313.632V231H317.632ZM315.632 1.99998H369.092V-2.00002H315.632V1.99998ZM367.092 -1.52588e-05V231H371.092V-1.52588e-05H367.092ZM369.092 229H315.632V233H369.092V229ZM423.913 231H421.913V233H423.913V231ZM423.913 -1.52588e-05V-2.00002H421.913V-1.52588e-05H423.913ZM477.373 -1.52588e-05H479.373V-2.00002H477.373V-1.52588e-05ZM477.373 187.44H475.373V189.44H477.373V187.44ZM593.203 187.44H595.203V185.44H593.203V187.44ZM593.203 231V233H595.203V231H593.203ZM425.913 231V-1.52588e-05H421.913V231H425.913ZM423.913 1.99998H477.373V-2.00002H423.913V1.99998ZM475.373 -1.52588e-05V187.44H479.373V-1.52588e-05H475.373ZM477.373 189.44H593.203V185.44H477.373V189.44ZM591.203 187.44V231H595.203V187.44H591.203ZM593.203 229H423.913V233H593.203V229ZM594.003 231L592.176 230.186L590.922 233H594.003V231ZM696.963 -1.52588e-05V-2.00002H695.664L695.136 -0.814232L696.963 -1.52588e-05ZM749.763 -1.52588e-05L751.588 -0.816406L751.059 -2.00002H749.763V-1.52588e-05ZM853.053 231V233H856.138L854.878 230.184L853.053 231ZM796.953 231L795.105 231.765L795.616 233H796.953V231ZM712.473 27.06V25.06H709.479L710.625 27.8254L712.473 27.06ZM733.593 27.06L735.439 27.8279L736.59 25.06H733.593V27.06ZM648.783 231V233H650.117L650.629 231.768L648.783 231ZM645.483 181.5L643.595 180.84L642.665 183.5H645.483V181.5ZM659.673 140.91V138.91H658.253L657.785 140.25L659.673 140.91ZM778.473 140.91L780.356 140.236L779.881 138.91H778.473V140.91ZM792.993 181.5V183.5H795.832L794.876 180.826L792.993 181.5ZM595.829 231.814L698.789 0.814201L695.136 -0.814232L592.176 230.186L595.829 231.814ZM696.963 1.99998H749.763V-2.00002H696.963V1.99998ZM747.937 0.816376L851.227 231.816L854.878 230.184L751.588 -0.816406L747.937 0.816376ZM853.053 229H796.953V233H853.053V229ZM798.8 230.235L714.32 26.2946L710.625 27.8254L795.105 231.765L798.8 230.235ZM712.473 29.06H733.593V25.06H712.473V29.06ZM731.746 26.292L646.936 230.232L650.629 231.768L735.439 27.8279L731.746 26.292ZM648.783 229H594.003V233H648.783V229ZM647.371 182.16L661.561 141.57L657.785 140.25L643.595 180.84L647.371 182.16ZM659.673 142.91H778.473V138.91H659.673V142.91ZM776.59 141.584L791.11 182.174L794.876 180.826L780.356 140.236L776.59 141.584ZM792.993 179.5H645.483V183.5H792.993V179.5ZM920.259 231H918.259V233H920.259V231ZM920.259 136.62L922.13 135.914L918.259 136.62H920.259ZM932.469 168.96L930.755 169.991L934.34 168.254L932.469 168.96ZM830.829 -1.52588e-05V-2.00002H827.292L829.115 1.03094L830.829 -1.52588e-05ZM887.589 -1.52588e-05L889.304 -1.02965L888.721 -2.00002H887.589V-1.52588e-05ZM965.469 129.69V131.69H969.003L967.184 128.66L965.469 129.69ZM932.799 129.69L931.087 128.657L929.258 131.69H932.799V129.69ZM1011.01 -1.52588e-05V-2.00002H1009.88L1009.3 -1.03285L1011.01 -1.52588e-05ZM1063.48 -1.52588e-05L1065.19 1.03094L1067.02 -2.00002H1063.48V-1.52588e-05ZM961.839 168.96L959.962 168.27L963.553 169.991L961.839 168.96ZM973.719 136.62H975.719L971.842 135.93L973.719 136.62ZM973.719 231V233H975.719V231H973.719ZM922.259 231V136.62H918.259V231H922.259ZM918.388 137.326L930.598 169.666L934.34 168.254L922.13 135.914L918.388 137.326ZM934.183 167.929L832.543 -1.03098L829.115 1.03094L930.755 169.991L934.183 167.929ZM830.829 1.99998H887.589V-2.00002H830.829V1.99998ZM885.875 1.02962L963.755 130.72L967.184 128.66L889.304 -1.02965L885.875 1.02962ZM965.469 127.69H932.799V131.69H965.469V127.69ZM934.512 130.723L1012.72 1.03282L1009.3 -1.03285L931.087 128.657L934.512 130.723ZM1011.01 1.99998H1063.48V-2.00002H1011.01V1.99998ZM1061.77 -1.03098L960.125 167.929L963.553 169.991L1065.19 1.03094L1061.77 -1.03098ZM963.717 169.65L975.597 137.31L971.842 135.93L959.962 168.27L963.717 169.65ZM971.719 136.62V231H975.719V136.62H971.719ZM973.719 229H920.259V233H973.719V229ZM1041.31 231L1039.48 230.186L1038.23 233H1041.31V231ZM1144.27 -1.52588e-05V-2.00002H1142.97L1142.44 -0.814232L1144.27 -1.52588e-05ZM1197.07 -1.52588e-05L1198.89 -0.816406L1198.36 -2.00002H1197.07V-1.52588e-05ZM1300.36 231V233H1303.44L1302.18 230.184L1300.36 231ZM1244.26 231L1242.41 231.765L1242.92 233H1244.26V231ZM1159.78 27.06V25.06H1156.78L1157.93 27.8254L1159.78 27.06ZM1180.9 27.06L1182.74 27.8279L1183.9 25.06H1180.9V27.06ZM1096.09 231V233H1097.42L1097.93 231.768L1096.09 231ZM1092.79 181.5L1090.9 180.84L1089.97 183.5H1092.79V181.5ZM1106.98 140.91V138.91H1105.56L1105.09 140.25L1106.98 140.91ZM1225.78 140.91L1227.66 140.236L1227.19 138.91H1225.78V140.91ZM1240.3 181.5V183.5H1243.14L1242.18 180.826L1240.3 181.5ZM1043.13 231.814L1146.09 0.814201L1142.44 -0.814232L1039.48 230.186L1043.13 231.814ZM1144.27 1.99998H1197.07V-2.00002H1144.27V1.99998ZM1195.24 0.816376L1298.53 231.816L1302.18 230.184L1198.89 -0.816406L1195.24 0.816376ZM1300.36 229H1244.26V233H1300.36V229ZM1246.11 230.235L1161.63 26.2946L1157.93 27.8254L1242.41 231.765L1246.11 230.235ZM1159.78 29.06H1180.9V25.06H1159.78V29.06ZM1179.05 26.292L1094.24 230.232L1097.93 231.768L1182.74 27.8279L1179.05 26.292ZM1096.09 229H1041.31V233H1096.09V229ZM1094.68 182.16L1108.87 141.57L1105.09 140.25L1090.9 180.84L1094.68 182.16ZM1106.98 142.91H1225.78V138.91H1106.98V142.91ZM1223.89 141.584L1238.41 182.174L1242.18 180.826L1227.66 140.236L1223.89 141.584ZM1240.3 179.5H1092.79V183.5H1240.3V179.5Z" fill="white" fill-opacity="0.12" mask="url(#path-1-outside-1_64_364)"/>
</svg>
