<svg width="168" height="177" viewBox="0 0 168 177" fill="none" xmlns="http://www.w3.org/2000/svg">
<g clip-path="url(#clip0_7_40)">
<path d="M10.3525 47.7931C3.55564 35.2855 0.0216734 21.2663 0.077307 7.0314C0.0756102 4.0603 0.955353 1.15548 2.6052 -1.31544C4.25504 -3.78636 6.60083 -5.7123 9.34567 -6.84952C12.0905 -7.98674 15.111 -8.28411 18.0249 -7.70401C20.9389 -7.12392 23.6152 -5.69242 25.7152 -3.59068L65.4131 38.7204C62.9995 43.8044 61.7336 49.3571 61.7054 54.9849C61.7054 55.856 61.8981 56.6962 61.9521 57.5595L15.494 8.02578C15.5924 19.3224 18.4587 30.4226 23.8421 40.3545C32.7024 57.3865 44.3336 72.8262 58.2598 86.0418L47.3525 96.9877C32.3185 82.8065 19.8067 66.1709 10.3525 47.7931ZM99.5302 110.169L87.6363 122.078C100.721 127.973 115.059 130.547 129.377 129.571L173.684 176.661L184.908 166.101L135.027 112.913C123.179 115.453 110.848 114.5 99.5302 110.169ZM105.651 93.1412C109.986 97.4694 115.862 99.9003 121.988 99.9003C128.115 99.9003 133.991 97.4694 138.326 93.1412L185.077 46.3439L174.209 35.4366L127.458 82.2416C126.012 83.6867 124.052 84.4985 122.008 84.4985C119.964 84.4985 118.003 83.6867 116.558 82.2416L111.093 76.7918L163.301 24.537L152.409 13.6297L100.209 65.8922L94.7665 60.4424C94.0498 59.7265 93.4812 58.8764 93.0933 57.9406C92.7054 57.0049 92.5057 56.0018 92.5057 54.9888C92.5057 53.9758 92.7054 52.9727 93.0933 52.037C93.4812 51.1012 94.0498 50.251 94.7665 49.5352L141.518 2.73015L130.618 -8.16943L83.8669 38.6356C79.5387 42.9775 77.1083 48.8581 77.1083 54.9888C77.1083 61.1195 79.5387 67.0001 83.8669 71.342L89.309 76.7918L0.262307 165.931L11.1542 176.831L100.209 87.6914L105.651 93.1412Z" fill="white" fill-opacity="0.1"/>
</g>
<defs>
<clipPath id="clip0_7_40">
<rect width="168" height="177" fill="white"/>
</clipPath>
</defs>
</svg>
