<svg width="175" height="178" viewBox="0 0 175 178" fill="none" xmlns="http://www.w3.org/2000/svg">
<g clip-path="url(#clip0_8_56)">
<path d="M42.625 154.75C37.4864 154.75 32.5583 152.709 28.9248 149.075C25.2913 145.442 23.25 140.514 23.25 135.375V3.625C23.25 0.541859 22.0252 -2.41501 19.8451 -4.59512C17.665 -6.77523 14.7081 -8 11.625 -8C8.54186 -8 5.58499 -6.77523 3.40488 -4.59512C1.22477 -2.41501 0 0.541859 0 3.625L0 135.375C0 146.68 4.49084 157.522 12.4846 165.515C20.4783 173.509 31.3201 178 42.625 178H174.375C177.458 178 180.415 176.775 182.595 174.595C184.775 172.415 186 169.458 186 166.375C186 163.292 184.775 160.335 182.595 158.155C180.415 155.975 177.458 154.75 174.375 154.75H42.625Z" fill="white" fill-opacity="0.1"/>
<path d="M151.125 131.5C154.208 131.5 157.165 130.275 159.345 128.095C161.525 125.915 162.75 122.958 162.75 119.875V73.375C162.75 70.2919 161.525 67.335 159.345 65.1549C157.165 62.9748 154.208 61.75 151.125 61.75C148.042 61.75 145.085 62.9748 142.905 65.1549C140.725 67.335 139.5 70.2919 139.5 73.375V119.875C139.5 122.958 140.725 125.915 142.905 128.095C145.085 130.275 148.042 131.5 151.125 131.5Z" fill="white" fill-opacity="0.1"/>
<path d="M58.125 131.5C61.2081 131.5 64.165 130.275 66.3451 128.095C68.5252 125.915 69.75 122.958 69.75 119.875V73.375C69.75 70.2919 68.5252 67.335 66.3451 65.1549C64.165 62.9748 61.2081 61.75 58.125 61.75C55.0419 61.75 52.085 62.9748 49.9049 65.1549C47.7248 67.335 46.5 70.2919 46.5 73.375V119.875C46.5 122.958 47.7248 125.915 49.9049 128.095C52.085 130.275 55.0419 131.5 58.125 131.5Z" fill="white" fill-opacity="0.1"/>
<path d="M104.625 131.5C107.708 131.5 110.665 130.275 112.845 128.095C115.025 125.915 116.25 122.958 116.25 119.875V34.625C116.25 31.5419 115.025 28.585 112.845 26.4049C110.665 24.2248 107.708 23 104.625 23C101.542 23 98.585 24.2248 96.4049 26.4049C94.2248 28.585 93 31.5419 93 34.625V119.875C93 122.958 94.2248 125.915 96.4049 128.095C98.585 130.275 101.542 131.5 104.625 131.5Z" fill="white" fill-opacity="0.1"/>
</g>
<defs>
<clipPath id="clip0_8_56">
<rect width="175" height="178" fill="white"/>
</clipPath>
</defs>
</svg>
